<?xml version="1.0" encoding="UTF-8" standalone="no"?>
<svg
   xmlns:dc="http://purl.org/dc/elements/1.1/"
   xmlns:cc="http://creativecommons.org/ns#"
   xmlns:rdf="http://www.w3.org/1999/02/22-rdf-syntax-ns#"
   xmlns:svg="http://www.w3.org/2000/svg"
   xmlns="http://www.w3.org/2000/svg"
   xmlns:sodipodi="http://sodipodi.sourceforge.net/DTD/sodipodi-0.dtd"
   xmlns:inkscape="http://www.inkscape.org/namespaces/inkscape"
   width="850"
   height="1000"
   viewBox="0 0 850 1000"
   version="1.1"
   id="svg3321"
   sodipodi:docname="geographically-accurate-map.svg"
   inkscape:version="1.0.2 (394de47547, 2021-03-26)">
  <metadata
     id="metadata3327">
    <rdf:RDF>
      <cc:Work
         rdf:about="">
        <dc:format>image/svg+xml</dc:format>
        <dc:type
           rdf:resource="http://purl.org/dc/dcmitype/StillImage" />
        <dc:title></dc:title>
      </cc:Work>
    </rdf:RDF>
  </metadata>
  <defs
     id="defs3325" />
  <sodipodi:namedview
     pagecolor="#ffffff"
     bordercolor="#666666"
     borderopacity="1"
     objecttolerance="10"
     gridtolerance="10"
     guidetolerance="10"
     inkscape:pageopacity="0"
     inkscape:pageshadow="2"
     inkscape:window-width="1920"
     inkscape:window-height="1014"
     id="namedview3323"
     showgrid="false"
     inkscape:zoom="0.66153845"
     inkscape:cx="615.51871"
     inkscape:cy="462.85754"
     inkscape:window-x="3840"
     inkscape:window-y="34"
     inkscape:window-maximized="1"
     inkscape:current-layer="svg3321"
     inkscape:document-rotation="0" />
  <path
     id="green_e"
     stroke="#006b2b"
     d="m 460.62395,475.40951 c -3.01269,-2.63358 -3.07534,-7.05135 -4.51272,-10.56498 -0.41233,-1.42946 -1.56713,-3.4054 0.40143,-4.24565 2.42847,-2.49888 5.59526,-4.51482 9.22336,-4.12468 3.03035,-0.0108 6.46247,0.5006 8.73418,-2.02273 5.10864,-3.5709 11.01469,-5.73332 16.46462,-8.69029 9.33851,-5.00104 18.69759,-10.01813 28.08625,-14.93811 4.1445,-2.75593 8.98603,-4.459 12.99142,-7.40549 6.89537,-7.54957 13.7258,-15.17055 20.63022,-22.70694 1.1578,-2.33857 1.90703,-4.98013 2.24647,-7.54607 -0.22676,-0.91005 -0.45358,-1.82012 -0.68032,-2.73017"
     style="fill:none;stroke-width:8.09139;stroke-linecap:round;stroke-miterlimit:3.25" />
  <path
     id="green_d"
     stroke="#30a151"
     d="m 29.045698,439.40772 c 19.71441,13.09544 39.790319,25.89858 58.77682,40.00721 14.074972,15.26385 33.535142,23.68165 50.277552,35.53398 6.47576,6.25694 18.2472,7.65654 23.69716,-0.63225 6.91571,-9.36413 13.27417,-19.50346 24.08135,-24.84349 14.02469,-8.15464 26.67402,-23.27728 44.41509,-21.15645 20.69903,4.04657 40.74889,11.55454 61.51426,15.10872 13.90509,-0.14872 22.22692,-13.61913 32.90124,-20.61282 8.09878,-6.26766 15.52663,-15.34164 26.71639,-15.1097 7.81897,-2.81285 17.39171,-4.32439 23.91552,2.30985 7.60579,5.99633 15.05038,13.608 25.5776,13.14691 8.42311,1.9012 16.76781,1.7192 25.22499,0.52638 14.55143,0.19605 26.19192,-12.53662 29.57328,-25.94289 1.88455,-8.41172 4.34157,-17.36105 12.38028,-22.09698 6.00703,-6.2434 14.72468,-9.91092 18.73531,-17.68804 7.9872,-2.67839 17.37474,-9.06648 25.82487,-5.2455 5.80746,6.11644 14.82383,1.22057 22.03846,3.72763 8.01473,-2.32626 15.82262,-5.68478 23.75691,-8.36141"
     style="fill:none;stroke-width:8.09139;stroke-linecap:round;stroke-miterlimit:3.25" />
  <path
     id="green_c"
     stroke="#73c275"
     d="m 342.20284,444.57678 c 14.79099,-4.73365 30.09957,-8.07956 44.48865,-13.91037 6.63999,-0.73455 13.63965,0.21315 19.87222,-2.83802 5.86759,-3.37711 12.38449,-5.12447 18.75681,-7.24651 12.3298,-3.97686 24.41008,-8.95207 36.62923,-13.36633 12.70216,-5.16128 25.71605,-9.5645 38.47103,-14.60133 3.77698,-0.51764 8.07533,-2.07733 11.66373,-0.32214 2.5489,1.94892 5.17572,4.42548 8.68657,3.4723 5.02659,-0.78043 10.01926,0.77374 14.98977,0.51403 7.56573,-2.72827 15.1237,-5.4781 22.69191,-8.19955"
     style="fill:none;stroke-width:8.09139;stroke-linecap:round;stroke-miterlimit:3.25" />
  <path
     id="green_b"
     stroke="#b8e3b3"
     d="m 288.41415,428.08513 c 5.08977,1.47762 10.64589,-0.75275 15.93969,0.30449 8.72222,-0.64779 16.45093,3.68509 23.54511,8.10012 5.10984,1.43979 4.50796,-6.28092 7.59941,-8.54092 3.43961,-5.02478 9.5692,-5.96873 15.17269,-5.54732 9.99396,-1.23869 12.37493,-12.4069 16.49727,-19.79152 1.79267,-3.62963 0.2503,-11.1534 6.32808,-10.6602 4.36389,1.72311 9.65588,5.04552 13.7676,0.71223 5.67755,-2.8644 10.6929,-9.46887 17.71459,-7.25594 5.31488,0.95943 8.48079,-4.37261 12.35304,-6.42655 28.02299,4.06181 55.85052,9.65682 83.93766,13.18503 4.86626,-0.46345 10.3656,-1.92887 13.98214,2.44394 4.701,2.9276 10.81182,-0.24127 16.00051,1.49586 6.78748,1.27262 12.79667,-3.69167 19.21787,-5.14743 13.39038,-4.43993 26.389,-10.33965 40.06306,-13.75571 2.47887,-0.86457 6.23007,1.35272 8.11813,-0.53679 2.2385,-5.79075 3.94563,-12.1883 9.06791,-16.28275 4.96387,-5.67936 7.61235,-12.80709 11.52088,-19.11118 1.98399,-8.89822 -6.5599,-14.27183 -10.39136,-21.12529 -4.29209,-2.47295 -7.79082,6.01601 -12.29943,2.00733 -10.23812,-3.57531 -18.19731,-11.56436 -27.3914,-17.15096 -3.13079,-2.45688 -7.47951,-2.07819 -10.37433,-4.93317 -2.1229,1.11663 1.32132,1.87566 2.14811,1.79146"
     style="fill:none;stroke-width:8.09139;stroke-linecap:round;stroke-miterlimit:3.25" />
  <path
     id="blue"
     stroke="#0000fd"
     d="m 820.19024,127.29093 c -6.31581,14.03578 -1.02511,29.40422 -0.15354,43.96282 1.47838,8.03492 1.61994,16.67358 -3.10411,23.75502 -5.29762,9.65071 -8.63318,20.54582 -15.54875,29.20855 -7.83478,8.59881 -19.83218,10.91591 -29.80272,16.1561 -6.12614,2.0139 -11.38083,5.5787 -15.44797,10.58731 -5.84193,5.07947 -10.69893,14.12686 -19.74444,12.68954 -6.65425,-0.92814 -12.85283,2.80259 -17.94898,6.61182 -7.57032,8.05039 -14.27034,16.8958 -21.79635,24.93088 -5.33567,2.04453 -12.42514,1.13644 -15.83072,6.84949 -10.87536,12.98689 -17.79936,28.80805 -27.52063,42.58902 -5.10874,3.35745 -11.89739,2.53571 -17.64443,4.36473 -5.16823,0.70086 -10.33953,2.78604 -15.50264,2.76782 -4.06195,-0.34719 -7.07821,-2.99747 -7.76962,-7.02684 -1.22026,-1.50215 -3.35922,-1.88991 -4.977,-2.83751"
     style="fill:none;stroke-width:8.09139;stroke-linecap:round;stroke-miterlimit:3.25" />
  <path
     id="orange"
     stroke="#fd7f00"
     d="m 448.62656,589.62182 c 9.26657,-17.39315 18.45004,-34.98247 25.52038,-53.35014 2.4041,-13.2372 9.48616,-24.60525 16.48063,-35.8235 6.95031,-14.65602 7.94256,-32.55707 20.87543,-43.95121 17.12156,-20.04314 35.23673,-39.12904 53.15299,-58.44458 9.7687,-1.77998 19.91194,0.38222 29.57558,-0.69906 8.56026,-5.48354 10.40847,-16.10123 11.90497,-25.22516 5.21477,-8.31727 15.79364,-14.61329 13.72247,-25.807 1.02391,-7.7093 -0.66004,-15.21617 -6.48307,-20.68927 -10.1118,-13.35633 -17.7887,-29.68824 -33.66316,-37.2071 -8.65617,-6.26384 -16.59437,-15.87824 -18.15394,-26.66803 0.55034,-34.06061 -2.02808,-68.07431 -0.1321,-102.127 0.96296,-21.03316 -0.71284,-42.23419 1.56339,-63.161326 4.99147,-22.81676 15.57459,-44.590253 17.14218,-68.075708"
     style="fill:none;stroke-width:8.09139;stroke-linecap:round;stroke-miterlimit:3.25" />
  <path
     id="red_a"
     stroke="#fa9170"
     d="m 514.37599,725.95076 c 5.16359,-1.58225 10.7893,-2.52294 15.90451,-0.22821 5.96348,2.32707 11.7163,-1.67449 17.3841,-3.07899 8.66947,-2.75813 17.15041,-6.40468 26.3099,-7.17244 6.38158,-1.63554 13.04958,-0.29504 19.43758,-1.53751 7.53847,-2.27547 12.37102,-8.92359 18.23108,-13.75089 3.50734,-2.37271 5.97609,-6.66654 4.42991,-10.92298 -1.57839,-6.72525 -3.93894,-13.20188 -7.34796,-19.22102 -2.115,-4.04359 -3.68605,-8.47344 -6.52853,-12.01396 -2.7556,-6.37385 -2.83845,-13.51318 -4.26132,-20.25095 -1.35579,-9.39227 -3.09122,-18.73264 -4.65654,-28.07849 -0.53168,-7.87902 5.47988,-15.04063 13.08145,-16.6516 4.67852,-2.58248 10.12535,-0.78516 15.01149,-2.26697 2.00355,-0.81672 3.90943,-2.51726 4.19803,-4.76228"
     style="fill:none;stroke-width:8.09139;stroke-linecap:round;stroke-miterlimit:3.25" />
  <path
     id="red_b"
     stroke="#de2b23"
     d="m 789.74969,971.60726 c 0.5666,-18.24546 8.65281,-37.52308 1.8352,-55.23038 -7.94592,-17.74637 -23.11432,-35.83908 -16.69471,-56.47448 2.55401,-19.08891 9.52962,-38.08829 8.72699,-57.34291 -8.62643,-26.02761 -30.43946,-44.21594 -45.63435,-66.3302 -13.016,-17.95344 -28.92471,-34.11919 -40.30837,-53.07305 -4.18442,-19.71374 -22.27021,-31.94885 -33.28308,-47.80981 -11.90636,-16.40401 -28.31705,-30.06584 -37.46908,-48.1585 -2.33749,-19.35076 7.99939,-37.72724 10.60036,-56.49254 -1.73175,-14.64019 2.46213,-33.33936 -12.31959,-42.64468 -7.03293,-4.69827 -7.0466,-11.89759 -3.06966,-18.69057 0.92034,-18.6972 -2.79612,-38.12525 0.76571,-56.41903 2.78811,-10.25287 11.32447,-19.2949 11.77564,-29.88181 -6.48241,-7.91005 -17.75919,-9.45371 -23.90033,-18.09968 -11.6056,-4.19421 -19.19254,-13.54992 -27.49877,-22.01155 -30.85605,-4.80313 -62.47341,-6.87408 -93.48883,-10.8683 -12.31161,-9.61227 -23.73696,-20.68314 -38.1331,-27.05122 -4.22099,-6.61349 -10.40974,-10.78076 -17.04345,-13.92834 0.52131,-6.18604 -1.04264,-11.25172 -3.93891,-16.39905 0.47291,-24.59138 5.08855,-49.5179 3.97306,-74.01952 -15.43278,-9.80048 -35.70514,-9.06459 -53.51172,-9.40789 -5.29716,2.33492 -7.52307,9.85271 -14.97097,7.07009 l -1.8603,0.0415 -0.23013,0.005"
     style="fill:none;stroke-width:8.09139;stroke-linecap:round;stroke-miterlimit:3.25" />
  <path
     style="fill:#fdfdfd;fill-opacity:1;fill-rule:evenodd;stroke:#000000;stroke-width:0.796555;stroke-linecap:square;stroke-linejoin:miter;stroke-miterlimit:3.25;stroke-dasharray:none;stroke-opacity:1"
     d="m 706.46557,288.31947 c 0,-0.84414 -0.33839,-1.6549 -0.93473,-2.25106 -0.5961,-0.60092 -1.40697,-0.93477 -2.25102,-0.93477 -0.84417,0 -1.65505,0.33387 -2.25596,0.93477 -0.5955,0.59616 -0.92985,1.40692 -0.92985,2.25106 0,0.84416 0.33357,1.65492 0.92985,2.25107 0.60091,0.60092 1.41179,0.93476 2.25596,0.93476 0.84405,0 1.65486,-0.33387 2.25102,-0.93476 0.5955,-0.59616 0.93473,-1.40691 0.93473,-2.25107 z m 0,0"
     id="path18" />
  <path
     style="fill:#fdfdfd;fill-opacity:1;fill-rule:evenodd;stroke:#000000;stroke-width:0.796555;stroke-linecap:square;stroke-linejoin:miter;stroke-miterlimit:3.25;stroke-dasharray:none;stroke-opacity:1"
     d="m 640.70377,349.16714 c 0,-0.84416 -0.33358,-1.65492 -0.93003,-2.25107 -0.60032,-0.59616 -1.41173,-0.93478 -2.2559,-0.93478 -0.84417,0 -1.65499,0.33863 -2.25115,0.93478 -0.59549,0.5961 -0.93466,1.40691 -0.93466,2.25107 0,0.84415 0.33839,1.65491 0.93466,2.25583 0.5961,0.5961 1.40698,0.92999 2.25115,0.92999 0.84417,0 1.65498,-0.33387 2.2559,-0.92999 0.59609,-0.60091 0.93003,-1.41168 0.93003,-2.25583 z m 0,0"
     id="path20" />
  <path
     style="fill:#fdfdfd;fill-opacity:1;fill-rule:evenodd;stroke:#000000;stroke-width:0.796555;stroke-linecap:square;stroke-linejoin:miter;stroke-miterlimit:3.25;stroke-dasharray:none;stroke-opacity:1"
     d="m 820.60829,194.47752 c 0,-0.84414 -0.33358,-1.65491 -0.93485,-2.25583 -0.5955,-0.59616 -1.40691,-0.93 -2.25102,-0.93 -0.84417,0 -1.65499,0.33387 -2.25121,0.93 -0.60031,0.60091 -0.93472,1.41169 -0.93472,2.25583 0,0.84416 0.33297,1.65492 0.93472,2.25107 0.5961,0.59616 1.40704,0.93477 2.25121,0.93477 0.84411,0 1.65486,-0.33863 2.25102,-0.93477 0.60152,-0.59616 0.93485,-1.40691 0.93485,-2.25107 z m 0,0"
     id="path22" />
  <path
     style="fill:#fdfdfd;fill-opacity:1;fill-rule:evenodd;stroke:#000000;stroke-width:0.796555;stroke-linecap:square;stroke-linejoin:miter;stroke-miterlimit:3.25;stroke-dasharray:none;stroke-opacity:1"
     d="m 610.72866,342.43046 c 0,-0.84413 -0.33297,-1.65491 -0.93473,-2.25106 -0.59549,-0.59616 -1.40691,-0.93478 -2.25114,-0.93478 -0.84417,0 -1.65498,0.3387 -2.25108,0.93478 -0.60091,0.59615 -0.93473,1.40693 -0.93473,2.25106 0,0.84415 0.33357,1.65492 0.93473,2.25586 0.5955,0.59609 1.40691,0.92999 2.25108,0.92999 0.84423,0 1.65499,-0.33388 2.25114,-0.92999 0.60032,-0.60092 0.93473,-1.41171 0.93473,-2.25586 z m 0,0"
     id="path24" />
  <path
     style="fill:#fdfdfd;fill-opacity:1;fill-rule:evenodd;stroke:#000000;stroke-width:0.796555;stroke-linecap:square;stroke-linejoin:miter;stroke-miterlimit:3.25;stroke-dasharray:none;stroke-opacity:1"
     d="m 617.92784,350.07382 c 0,-0.84412 -0.33358,-1.65491 -0.93016,-2.25107 -0.59549,-0.60091 -1.40679,-0.93476 -2.25583,-0.93476 -0.84417,0 -1.65487,0.33388 -2.25109,0.93476 -0.59549,0.59616 -0.93466,1.40695 -0.93466,2.25107 0,0.84416 0.33778,1.65493 0.93466,2.25108 0.5961,0.59616 1.40692,0.93478 2.25109,0.93478 0.84904,0 1.6598,-0.33863 2.25583,-0.93478 0.5961,-0.59616 0.93016,-1.40692 0.93016,-2.25108 z m 0,0"
     id="path26" />
  <path
     style="fill:#fdfdfd;fill-opacity:1;fill-rule:evenodd;stroke:#000000;stroke-width:0.796555;stroke-linecap:square;stroke-linejoin:miter;stroke-miterlimit:3.25;stroke-dasharray:none;stroke-opacity:1"
     d="m 678.13172,310.33381 c 0,-0.84416 -0.33297,-1.65492 -0.93473,-2.25585 -0.5967,-0.59616 -1.40691,-0.93001 -2.25108,-0.93001 -0.84423,0 -1.65492,0.33388 -2.25126,0.93001 -0.60032,0.60092 -0.93455,1.41169 -0.93455,2.25585 0,0.84413 0.33297,1.65491 0.93455,2.25105 0.5967,0.59616 1.40703,0.93478 2.25126,0.93478 0.84417,0 1.65486,-0.3387 2.25108,-0.93478 0.60031,-0.59609 0.93473,-1.40692 0.93473,-2.25105 z m 0,0"
     id="path28" />
  <path
     style="fill:#fdfdfd;fill-opacity:1;fill-rule:evenodd;stroke:#000000;stroke-width:0.796555;stroke-linecap:square;stroke-linejoin:miter;stroke-miterlimit:3.25;stroke-dasharray:none;stroke-opacity:1"
     d="m 783.47038,237.16428 c 0,-0.84891 -0.33839,-1.65491 -0.93473,-2.25583 -0.5967,-0.59616 -1.40691,-0.92999 -2.25108,-0.92999 -0.84411,0 -1.65499,0.33387 -2.2559,0.92999 -0.5961,0.60091 -0.92986,1.40692 -0.92986,2.25583 0,0.84416 0.33358,1.65492 0.92986,2.25106 0.60091,0.5961 1.41179,0.93478 2.2559,0.93478 0.84417,0 1.65498,-0.33863 2.25108,-0.93478 0.59489,-0.59609 0.93473,-1.4069 0.93473,-2.25106 z m 0,0"
     id="path30" />
  <path
     style="fill:#fdfdfd;fill-opacity:1;fill-rule:evenodd;stroke:#000000;stroke-width:0.796555;stroke-linecap:square;stroke-linejoin:miter;stroke-miterlimit:3.25;stroke-dasharray:none;stroke-opacity:1"
     d="m 820.69897,151.03822 c 0,-0.84416 -0.33839,-1.6549 -0.93491,-2.25107 -0.5955,-0.59616 -1.40679,-0.93476 -2.25096,-0.93476 -0.84899,0 -1.65499,0.33869 -2.25578,0.93476 -0.5955,0.59616 -0.93003,1.40691 -0.93003,2.25107 0,0.84892 0.33357,1.65969 0.93003,2.25584 0.60151,0.59616 1.40679,0.93 2.25578,0.93 0.84417,0 1.65492,-0.33388 2.25096,-0.93 0.5967,-0.59616 0.93491,-1.40692 0.93491,-2.25584 z m 0,0"
     id="path32" />
  <path
     style="fill:#fdfdfd;fill-opacity:1;fill-rule:evenodd;stroke:#000000;stroke-width:0.796555;stroke-linecap:square;stroke-linejoin:miter;stroke-miterlimit:3.25;stroke-dasharray:none;stroke-opacity:1"
     d="m 622.89646,352.11387 c 0,-0.84891 -0.33297,-1.65492 -0.93491,-2.25585 -0.59549,-0.59609 -1.40691,-0.92998 -2.25102,-0.92998 -0.84417,0 -1.65486,0.33387 -2.25108,0.92998 -0.60092,0.60092 -0.93473,1.40694 -0.93473,2.25585 0,0.84415 0.33357,1.65492 0.93473,2.25107 0.5961,0.5961 1.40691,0.93476 2.25108,0.93476 0.84411,0 1.65499,-0.33863 2.25102,-0.93476 0.60092,-0.59616 0.93491,-1.40692 0.93491,-2.25107 z m 0,0"
     id="path34" />
  <path
     style="fill:#fdfdfd;fill-opacity:1;fill-rule:evenodd;stroke:#000000;stroke-width:0.796555;stroke-linecap:square;stroke-linejoin:miter;stroke-miterlimit:3.25;stroke-dasharray:none;stroke-opacity:1"
     d="m 806.62715,222.17678 c 0,-0.84415 -0.33839,-1.65492 -0.93479,-2.25107 -0.5961,-0.60092 -1.40691,-0.93478 -2.25102,-0.93478 -0.84417,0 -1.65499,0.33387 -2.25584,0.93478 -0.5961,0.59615 -0.93003,1.40692 -0.93003,2.25107 0,0.84414 0.33357,1.65491 0.93003,2.25105 0.60091,0.60092 1.41167,0.93478 2.25584,0.93478 0.84411,0 1.65492,-0.33387 2.25102,-0.93478 0.59549,-0.59615 0.93479,-1.40691 0.93479,-2.25105 z m 0,0"
     id="path36" />
  <path
     style="fill:#fdfdfd;fill-opacity:1;fill-rule:evenodd;stroke:#000000;stroke-width:0.796555;stroke-linecap:square;stroke-linejoin:miter;stroke-miterlimit:3.25;stroke-dasharray:none;stroke-opacity:1"
     d="m 823.2375,128.10814 c 0,-0.84413 -0.33839,-1.6549 -0.93455,-2.25105 -0.59549,-0.59616 -1.40697,-0.93478 -2.25114,-0.93478 -0.84417,0 -1.65492,0.33864 -2.25584,0.93478 -0.5967,0.59615 -0.93003,1.40692 -0.93003,2.25105 0,0.84416 0.33297,1.65493 0.93003,2.25584 0.60031,0.59616 1.41167,0.93 2.25584,0.93 0.84417,0 1.65498,-0.33387 2.25114,-0.93 0.5961,-0.60091 0.93455,-1.41168 0.93455,-2.25584 z m 0,0"
     id="path38" />
  <path
     style="fill:#fdfdfd;fill-opacity:1;fill-rule:evenodd;stroke:#000000;stroke-width:0.796555;stroke-linecap:square;stroke-linejoin:miter;stroke-miterlimit:3.25;stroke-dasharray:none;stroke-opacity:1"
     d="m 728.60693,266.65876 c 0,-0.84414 -0.33297,-1.65492 -0.93479,-2.25582 -0.5955,-0.59616 -1.40691,-0.93 -2.25108,-0.93 -0.84423,0 -1.65499,0.33387 -2.25109,0.93 -0.60151,0.60091 -0.93479,1.41168 -0.93479,2.25582 0,0.84416 0.33358,1.65493 0.93479,2.25107 0.5949,0.5961 1.40686,0.93479 2.25109,0.93479 0.84417,0 1.65498,-0.33864 2.25108,-0.93479 0.60091,-0.5961 0.93479,-1.40691 0.93479,-2.25107 z m 0,0"
     id="path40" />
  <path
     style="fill:#fdfdfd;fill-opacity:1;fill-rule:evenodd;stroke:#000000;stroke-width:0.796555;stroke-linecap:square;stroke-linejoin:miter;stroke-miterlimit:3.25;stroke-dasharray:none;stroke-opacity:1"
     d="m 381.18303,394.00273 c 0,-0.84414 -0.33869,-1.65491 -0.93477,-2.25107 -0.59616,-0.59609 -1.40691,-0.93476 -2.25105,-0.93476 -0.84416,0 -1.65492,0.33864 -2.25584,0.93476 -0.59616,0.59616 -0.93001,1.40693 -0.93001,2.25107 0,0.84416 0.33388,1.65493 0.93001,2.25585 0.60091,0.5961 1.41168,0.92999 2.25584,0.92999 0.84414,0 1.65491,-0.33388 2.25105,-0.92999 0.59616,-0.60092 0.93477,-1.41169 0.93477,-2.25585 z m 0,0"
     id="path42" />
  <path
     style="fill:#fdfdfd;fill-opacity:1;fill-rule:evenodd;stroke:#000000;stroke-width:0.796555;stroke-linecap:square;stroke-linejoin:miter;stroke-miterlimit:3.25;stroke-dasharray:none;stroke-opacity:1"
     d="m 583.01125,380.91927 c 0,-0.84415 -0.33387,-1.65491 -0.93479,-2.25107 -0.5961,-0.59615 -1.4069,-0.93477 -2.25107,-0.93477 -0.84413,0 -1.6549,0.33863 -2.25106,0.93477 -0.60092,0.59616 -0.93477,1.40692 -0.93477,2.25107 0,0.84892 0.33388,1.65491 0.93477,2.25583 0.59616,0.59616 1.40693,0.93 2.25106,0.93 0.84417,0 1.65493,-0.33387 2.25107,-0.93 0.60092,-0.60091 0.93479,-1.40691 0.93479,-2.25583 z m 0,0"
     id="path44" />
  <path
     style="fill:#fdfdfd;fill-opacity:1;fill-rule:evenodd;stroke:#000000;stroke-width:0.796555;stroke-linecap:square;stroke-linejoin:miter;stroke-miterlimit:3.25;stroke-dasharray:none;stroke-opacity:1"
     d="m 429.40057,380.75607 c 0,-0.84415 -0.33869,-1.65492 -0.93476,-2.25106 -0.59616,-0.59616 -1.40693,-0.93478 -2.25108,-0.93478 -0.84414,0 -1.6549,0.3387 -2.25582,0.93478 -0.5961,0.59615 -0.93001,1.40691 -0.93001,2.25106 0,0.84415 0.33388,1.65491 0.93001,2.25106 0.60091,0.60091 1.41168,0.93478 2.25582,0.93478 0.84415,0 1.65492,-0.33387 2.25108,-0.93478 0.59615,-0.59616 0.93476,-1.40691 0.93476,-2.25106 z m 0,0"
     id="path46" />
  <path
     style="fill:#fdfdfd;fill-opacity:1;fill-rule:evenodd;stroke:#000000;stroke-width:0.796555;stroke-linecap:square;stroke-linejoin:miter;stroke-miterlimit:3.25;stroke-dasharray:none;stroke-opacity:1"
     d="m 461.63324,471.58782 c 0,-0.84415 -0.33388,-1.65491 -0.93477,-2.25106 -0.59616,-0.59616 -1.40692,-0.93477 -2.25106,-0.93477 -0.84415,0 -1.65493,0.33869 -2.25107,0.93477 -0.60091,0.59615 -0.93477,1.40691 -0.93477,2.25106 0,0.84892 0.33387,1.65491 0.93477,2.25583 0.5961,0.59616 1.40692,0.93001 2.25107,0.93001 0.84414,0 1.6549,-0.33388 2.25106,-0.93001 0.60091,-0.60091 0.93477,-1.40691 0.93477,-2.25583 z m 0,0"
     id="path48" />
  <path
     style="fill:#fdfdfd;fill-opacity:1;fill-rule:evenodd;stroke:#000000;stroke-width:0.796555;stroke-linecap:square;stroke-linejoin:miter;stroke-miterlimit:3.25;stroke-dasharray:none;stroke-opacity:1"
     d="m 373.24048,446.78997 c 0,-0.84415 -0.33387,-1.65493 -0.93478,-2.25107 -0.5961,-0.59615 -1.40691,-0.93477 -2.25105,-0.93477 -0.84415,0 -1.65493,0.33863 -2.25108,0.93477 -0.60091,0.59616 -0.93475,1.40692 -0.93475,2.25107 0,0.84416 0.33381,1.65492 0.93475,2.25585 0.59616,0.59616 1.40693,0.92998 2.25108,0.92998 0.84414,0 1.6549,-0.33387 2.25105,-0.92998 0.60091,-0.60092 0.93478,-1.41169 0.93478,-2.25585 z m 0,0"
     id="path50" />
  <path
     style="fill:#fdfdfd;fill-opacity:1;fill-rule:evenodd;stroke:#000000;stroke-width:0.796555;stroke-linecap:square;stroke-linejoin:miter;stroke-miterlimit:3.25;stroke-dasharray:none;stroke-opacity:1"
     d="m 494.99021,391.45496 c 0,-0.84416 -0.33388,-1.65492 -0.93478,-2.25107 -0.59616,-0.60092 -1.40692,-0.93477 -2.25106,-0.93477 -0.84415,0 -1.65491,0.33388 -2.25105,0.93477 -0.60092,0.59616 -0.93477,1.40691 -0.93477,2.25107 0,0.84414 0.33387,1.65492 0.93477,2.25107 0.59615,0.60091 1.4069,0.93476 2.25105,0.93476 0.84414,0 1.65492,-0.33388 2.25106,-0.93476 0.60092,-0.5961 0.93478,-1.40693 0.93478,-2.25107 z m 0,0"
     id="path52" />
  <path
     style="fill:#fdfdfd;fill-opacity:1;fill-rule:evenodd;stroke:#000000;stroke-width:0.796555;stroke-linecap:square;stroke-linejoin:miter;stroke-miterlimit:3.25;stroke-dasharray:none;stroke-opacity:1"
     d="m 292.18279,428.50212 c 0,-0.84414 -0.33387,-1.65491 -0.93477,-2.25107 -0.5961,-0.59615 -1.40691,-0.93476 -2.25106,-0.93476 -0.84415,0 -1.65493,0.33869 -2.25107,0.93476 -0.59616,0.59616 -0.93476,1.40693 -0.93476,2.25107 0,0.84893 0.33869,1.65968 0.93476,2.25584 0.5961,0.59616 1.40692,0.93 2.25107,0.93 0.84415,0 1.65492,-0.33388 2.25106,-0.93 0.60091,-0.59616 0.93477,-1.40691 0.93477,-2.25584 z m 0,0"
     id="path54" />
  <path
     style="fill:#fdfdfd;fill-opacity:1;fill-rule:evenodd;stroke:#000000;stroke-width:0.796555;stroke-linecap:square;stroke-linejoin:miter;stroke-miterlimit:3.25;stroke-dasharray:none;stroke-opacity:1"
     d="m 473.85535,388.00048 c 0,-0.84414 -0.33863,-1.6549 -0.93476,-2.25106 -0.59616,-0.59615 -1.40693,-0.93477 -2.25107,-0.93477 -0.84892,0 -1.65969,0.33863 -2.25584,0.93477 -0.59616,0.59616 -0.93,1.40692 -0.93,2.25106 0,0.84415 0.33387,1.65492 0.93,2.25584 0.59616,0.59616 1.40692,0.93 2.25584,0.93 0.84414,0 1.65492,-0.33388 2.25107,-0.93 0.5961,-0.60092 0.93476,-1.41169 0.93476,-2.25584 z m 0,0"
     id="path56" />
  <path
     style="fill:#fdfdfd;fill-opacity:1;fill-rule:evenodd;stroke:#000000;stroke-width:0.796555;stroke-linecap:square;stroke-linejoin:miter;stroke-miterlimit:3.25;stroke-dasharray:none;stroke-opacity:1"
     d="m 481.7526,389.31517 c 0,-0.84413 -0.33863,-1.6549 -0.93477,-2.25582 -0.59616,-0.59616 -1.40693,-0.93 -2.25106,-0.93 -0.84893,0 -1.65493,0.33387 -2.25584,0.93 -0.59616,0.60091 -0.92999,1.41169 -0.92999,2.25582 0,0.84417 0.33387,1.65493 0.92999,2.25107 0.60091,0.59616 1.40691,0.93478 2.25584,0.93478 0.84413,0 1.6549,-0.33863 2.25106,-0.93478 0.59616,-0.59616 0.93477,-1.4069 0.93477,-2.25107 z m 0,0"
     id="path58" />
  <path
     style="fill:#fdfdfd;fill-opacity:1;fill-rule:evenodd;stroke:#000000;stroke-width:0.796555;stroke-linecap:square;stroke-linejoin:miter;stroke-miterlimit:3.25;stroke-dasharray:none;stroke-opacity:1"
     d="m 454.25283,384.79988 c 0,-0.84416 -0.33388,-1.65493 -0.93,-2.25107 -0.60092,-0.59616 -1.40692,-0.93478 -2.25585,-0.93478 -0.84413,0 -1.6549,0.33869 -2.25105,0.93478 -0.59616,0.59609 -0.93478,1.40691 -0.93478,2.25107 0,0.84415 0.3387,1.6549 0.93478,2.25583 0.59616,0.59616 1.40692,0.93 2.25105,0.93 0.84893,0 1.65492,-0.33388 2.25585,-0.93 0.59616,-0.60091 0.93,-1.41168 0.93,-2.25583 z m 0,0"
     id="path60" />
  <path
     style="fill:#fdfdfd;fill-opacity:1;fill-rule:evenodd;stroke:#000000;stroke-width:0.796555;stroke-linecap:square;stroke-linejoin:miter;stroke-miterlimit:3.25;stroke-dasharray:none;stroke-opacity:1"
     d="m 602.35981,375.78743 c 0,-0.84416 -0.33839,-1.65491 -0.93461,-2.25107 -0.59609,-0.5961 -1.40697,-0.93477 -2.25114,-0.93477 -0.84887,0 -1.6598,0.33863 -2.25584,0.93477 -0.59549,0.59616 -0.93003,1.40691 -0.93003,2.25107 0,0.84415 0.33297,1.65492 0.93003,2.25583 0.5955,0.59616 1.40697,0.93001 2.25584,0.93001 0.84417,0 1.65499,-0.33388 2.25114,-0.93001 0.5961,-0.60091 0.93461,-1.41168 0.93461,-2.25583 z m 0,0"
     id="path62" />
  <path
     style="fill:#fdfdfd;fill-opacity:1;fill-rule:evenodd;stroke:#000000;stroke-width:0.796555;stroke-linecap:square;stroke-linejoin:miter;stroke-miterlimit:3.25;stroke-dasharray:none;stroke-opacity:1"
     d="m 408.37455,428.91919 c 0,-0.84413 -0.33388,-1.65492 -0.93478,-2.25105 -0.59616,-0.59616 -1.40692,-0.93478 -2.25106,-0.93478 -0.84415,0 -1.65492,0.33863 -2.25107,0.93478 -0.60091,0.59615 -0.93476,1.40692 -0.93476,2.25105 0,0.84892 0.33387,1.65969 0.93476,2.25584 0.59616,0.59616 1.40692,0.93 2.25107,0.93 0.84414,0 1.6549,-0.33388 2.25106,-0.93 0.60091,-0.59616 0.93478,-1.40692 0.93478,-2.25584 z m 0,0"
     id="path64" />
  <path
     style="fill:#fdfdfd;fill-opacity:1;fill-rule:evenodd;stroke:#000000;stroke-width:0.796555;stroke-linecap:square;stroke-linejoin:miter;stroke-miterlimit:3.25;stroke-dasharray:none;stroke-opacity:1"
     d="m 483.88331,451.38685 c 0,-0.84415 -0.33869,-1.65492 -0.93477,-2.25583 -0.59616,-0.59616 -1.40692,-0.93001 -2.25106,-0.93001 -0.84416,0 -1.65493,0.33387 -2.25585,0.93001 -0.59616,0.60091 -0.93,1.41168 -0.93,2.25583 0,0.84416 0.33388,1.65493 0.93,2.25109 0.60091,0.59616 1.41169,0.93474 2.25585,0.93474 0.84414,0 1.6549,-0.33863 2.25106,-0.93474 0.59615,-0.59616 0.93477,-1.40693 0.93477,-2.25109 z m 0,0"
     id="path66" />
  <path
     style="fill:#fdfdfd;fill-opacity:1;fill-rule:evenodd;stroke:#000000;stroke-width:0.796555;stroke-linecap:square;stroke-linejoin:miter;stroke-miterlimit:3.25;stroke-dasharray:none;stroke-opacity:1"
     d="m 414.22266,464.80581 c 0,-0.84415 -0.33869,-1.65491 -0.93477,-2.25107 -0.59615,-0.60092 -1.40692,-0.93476 -2.25107,-0.93476 -0.84892,0 -1.65492,0.33387 -2.25583,0.93476 -0.59616,0.59615 -0.93,1.40692 -0.93,2.25107 0,0.84415 0.33387,1.65493 0.93,2.25107 0.60091,0.60091 1.40691,0.93476 2.25583,0.93476 0.84415,0 1.65492,-0.33387 2.25107,-0.93476 0.5961,-0.59616 0.93477,-1.40692 0.93477,-2.25107 z m 0,0"
     id="path68" />
  <path
     style="fill:#fdfdfd;fill-opacity:1;fill-rule:evenodd;stroke:#000000;stroke-width:0.796555;stroke-linecap:square;stroke-linejoin:miter;stroke-miterlimit:3.25;stroke-dasharray:none;stroke-opacity:1"
     d="m 444.19767,459.48357 c 0,-0.84414 -0.33387,-1.65491 -0.93476,-2.25583 -0.59616,-0.59616 -1.40692,-0.92999 -2.25107,-0.92999 -0.84415,0 -1.65491,0.33387 -2.25106,0.92999 -0.60091,0.60092 -0.93477,1.41169 -0.93477,2.25583 0,0.84416 0.33387,1.65492 0.93477,2.25107 0.59616,0.59616 1.40691,0.93478 2.25106,0.93478 0.84415,0 1.65491,-0.33864 2.25107,-0.93478 0.60091,-0.59616 0.93476,-1.40691 0.93476,-2.25107 z m 0,0"
     id="path70" />
  <path
     style="fill:#fdfdfd;fill-opacity:1;fill-rule:evenodd;stroke:#000000;stroke-width:0.796555;stroke-linecap:square;stroke-linejoin:miter;stroke-miterlimit:3.25;stroke-dasharray:none;stroke-opacity:1"
     d="m 299.49975,483.45632 c 0,-0.84415 -0.33387,-1.65492 -0.93,-2.25105 -0.60092,-0.60092 -1.41168,-0.93479 -2.25584,-0.93479 -0.84414,0 -1.65491,0.33388 -2.25106,0.93479 -0.59616,0.59615 -0.93478,1.4069 -0.93478,2.25105 0,0.84415 0.3387,1.65492 0.93478,2.25109 0.5961,0.60091 1.40692,0.93476 2.25106,0.93476 0.84416,0 1.65491,-0.33388 2.25584,-0.93476 0.59616,-0.59616 0.93,-1.40694 0.93,-2.25109 z m 0,0"
     id="path72" />
  <path
     style="fill:#fdfdfd;fill-opacity:1;fill-rule:evenodd;stroke:#000000;stroke-width:0.796555;stroke-linecap:square;stroke-linejoin:miter;stroke-miterlimit:3.25;stroke-dasharray:none;stroke-opacity:1"
     d="m 335.70369,434.9668 c 0,-0.84416 -0.33863,-1.65492 -0.93478,-2.25107 -0.59609,-0.59616 -1.4069,-0.93477 -2.25105,-0.93477 -0.84891,0 -1.6549,0.33869 -2.25584,0.93477 -0.59615,0.59616 -0.93,1.40691 -0.93,2.25107 0,0.84415 0.33388,1.65491 0.93,2.25584 0.60092,0.59615 1.40693,0.92999 2.25584,0.92999 0.84415,0 1.65493,-0.33387 2.25105,-0.92999 0.59616,-0.60092 0.93478,-1.41169 0.93478,-2.25584 z m 0,0"
     id="path74" />
  <path
     style="fill:#fdfdfd;fill-opacity:1;fill-rule:evenodd;stroke:#000000;stroke-width:0.796555;stroke-linecap:square;stroke-linejoin:miter;stroke-miterlimit:3.25;stroke-dasharray:none;stroke-opacity:1"
     d="m 340.86274,426.60715 c 0,-0.84416 -0.33869,-1.65491 -0.93477,-2.25107 -0.59616,-0.59615 -1.40691,-0.93476 -2.25106,-0.93476 -0.84415,0 -1.65492,0.33869 -2.25584,0.93476 -0.59616,0.5961 -0.93,1.40691 -0.93,2.25107 0,0.84893 0.33388,1.65493 0.93,2.25584 0.60091,0.59616 1.41169,0.93 2.25584,0.93 0.84415,0 1.65491,-0.33388 2.25106,-0.93 0.5961,-0.60091 0.93477,-1.40691 0.93477,-2.25584 z m 0,0"
     id="path76" />
  <path
     style="fill:#fdfdfd;fill-opacity:1;fill-rule:evenodd;stroke:#000000;stroke-width:0.796555;stroke-linecap:square;stroke-linejoin:miter;stroke-miterlimit:3.25;stroke-dasharray:none;stroke-opacity:1"
     d="m 345.9039,444.96753 c 0,-0.84415 -0.33863,-1.65489 -0.93477,-2.25106 -0.5961,-0.59616 -1.40692,-0.93476 -2.25106,-0.93476 -0.84415,0 -1.65493,0.33863 -2.25584,0.93476 -0.59616,0.59616 -0.93001,1.40691 -0.93001,2.25106 0,0.84415 0.33388,1.65492 0.93001,2.25585 0.60092,0.5961 1.41169,0.92999 2.25584,0.92999 0.84414,0 1.65492,-0.33387 2.25106,-0.92999 0.59616,-0.60092 0.93477,-1.4117 0.93477,-2.25585 z m 0,0"
     id="path78" />
  <path
     style="fill:#fdfdfd;fill-opacity:1;fill-rule:evenodd;stroke:#000000;stroke-width:0.796555;stroke-linecap:square;stroke-linejoin:miter;stroke-miterlimit:3.25;stroke-dasharray:none;stroke-opacity:1"
     d="m 430.66992,420.33289 c 0,-0.84415 -0.33863,-1.65493 -0.93476,-2.25107 -0.59615,-0.59616 -1.40692,-0.93476 -2.25107,-0.93476 -0.84416,0 -1.65491,0.33869 -2.25105,0.93476 -0.60092,0.59616 -0.93479,1.40692 -0.93479,2.25107 0,0.84415 0.33388,1.65491 0.93479,2.25106 0.59609,0.60092 1.40689,0.93478 2.25105,0.93478 0.84415,0 1.65491,-0.33388 2.25107,-0.93478 0.59616,-0.59616 0.93476,-1.40691 0.93476,-2.25106 z m 0,0"
     id="path80" />
  <path
     style="fill:#fdfdfd;fill-opacity:1;fill-rule:evenodd;stroke:#000000;stroke-width:0.796555;stroke-linecap:square;stroke-linejoin:miter;stroke-miterlimit:3.25;stroke-dasharray:none;stroke-opacity:1"
     d="m 561.85827,388.5445 c 0,-0.84415 -0.33864,-1.65492 -0.93477,-2.25107 -0.59616,-0.59616 -1.40692,-0.93476 -2.25107,-0.93476 -0.84415,0 -1.6549,0.33863 -2.25583,0.93476 -0.59616,0.59616 -0.92999,1.40692 -0.92999,2.25107 0,0.84892 0.33387,1.65492 0.92999,2.25583 0.60091,0.59616 1.41168,0.93001 2.25583,0.93001 0.84415,0 1.65492,-0.33388 2.25107,-0.93001 0.59616,-0.60091 0.93477,-1.40691 0.93477,-2.25583 z m 0,0"
     id="path82" />
  <path
     style="fill:#fdfdfd;fill-opacity:1;fill-rule:evenodd;stroke:#000000;stroke-width:0.796555;stroke-linecap:square;stroke-linejoin:miter;stroke-miterlimit:3.25;stroke-dasharray:none;stroke-opacity:1"
     d="m 368.09957,438.50287 c 0,-0.84417 -0.33388,-1.65492 -0.93,-2.25107 -0.59616,-0.59615 -1.40692,-0.93476 -2.25585,-0.93476 -0.84414,0 -1.6549,0.33863 -2.25105,0.93476 -0.59616,0.59616 -0.93477,1.4069 -0.93477,2.25107 0,0.84892 0.33864,1.65968 0.93477,2.25584 0.59616,0.59615 1.40691,0.92999 2.25105,0.92999 0.84893,0 1.65969,-0.33387 2.25585,-0.92999 0.59615,-0.59616 0.93,-1.40692 0.93,-2.25584 z m 0,0"
     id="path84" />
  <path
     style="fill:#fdfdfd;fill-opacity:1;fill-rule:evenodd;stroke:#000000;stroke-width:0.796555;stroke-linecap:square;stroke-linejoin:miter;stroke-miterlimit:3.25;stroke-dasharray:none;stroke-opacity:1"
     d="m 142.09007,515.25378 c 0,-0.84414 -0.33388,-1.6549 -0.93477,-2.25106 -0.59616,-0.59616 -1.40692,-0.93477 -2.25106,-0.93477 -0.84415,0 -1.65492,0.33869 -2.25106,0.93477 -0.60092,0.59616 -0.93478,1.40692 -0.93478,2.25106 0,0.84417 0.33388,1.65491 0.93478,2.25107 0.59615,0.60091 1.40691,0.93477 2.25106,0.93477 0.84414,0 1.65492,-0.33387 2.25106,-0.93477 0.60091,-0.59616 0.93477,-1.4069 0.93477,-2.25107 z m 0,0"
     id="path86" />
  <path
     style="fill:#fdfdfd;fill-opacity:1;fill-rule:evenodd;stroke:#000000;stroke-width:0.796555;stroke-linecap:square;stroke-linejoin:miter;stroke-miterlimit:3.25;stroke-dasharray:none;stroke-opacity:1"
     d="m 357.37348,441.49493 c 0,-0.84415 -0.33388,-1.65491 -0.93478,-2.25106 -0.59615,-0.60091 -1.40691,-0.93477 -2.25107,-0.93477 -0.84414,0 -1.6549,0.33387 -2.25106,0.93477 -0.60091,0.59616 -0.93477,1.40691 -0.93477,2.25106 0,0.84415 0.33387,1.65492 0.93477,2.25106 0.59616,0.60092 1.40692,0.93478 2.25106,0.93478 0.84416,0 1.65492,-0.33387 2.25107,-0.93478 0.60092,-0.5961 0.93478,-1.40691 0.93478,-2.25106 z m 0,0"
     id="path88" />
  <path
     style="fill:#fdfdfd;fill-opacity:1;fill-rule:evenodd;stroke:#000000;stroke-width:0.796555;stroke-linecap:square;stroke-linejoin:miter;stroke-miterlimit:3.25;stroke-dasharray:none;stroke-opacity:1"
     d="m 400.37757,430.61471 c 0,-0.84416 -0.33387,-1.65492 -0.93001,-2.25106 -0.60092,-0.59616 -1.41168,-0.93477 -2.25583,-0.93477 -0.84414,0 -1.65491,0.33869 -2.25106,0.93477 -0.5961,0.5961 -0.93477,1.4069 -0.93477,2.25106 0,0.84415 0.33863,1.65492 0.93477,2.25585 0.59616,0.59615 1.40692,0.93 2.25106,0.93 0.84415,0 1.65492,-0.33388 2.25583,-0.93 0.59616,-0.60092 0.93001,-1.4117 0.93001,-2.25585 z m 0,0"
     id="path90" />
  <path
     style="fill:#fdfdfd;fill-opacity:1;fill-rule:evenodd;stroke:#000000;stroke-width:0.796555;stroke-linecap:square;stroke-linejoin:miter;stroke-miterlimit:3.25;stroke-dasharray:none;stroke-opacity:1"
     d="m 481.21767,408.01102 c 0,-0.84891 -0.3387,-1.65968 -0.93479,-2.25582 -0.5961,-0.59616 -1.40692,-0.93001 -2.25107,-0.93001 -0.84414,0 -1.65491,0.33387 -2.25582,0.93001 -0.59616,0.59616 -0.93001,1.40691 -0.93001,2.25582 0,0.84416 0.33387,1.65493 0.93001,2.25107 0.60091,0.59616 1.41168,0.93477 2.25582,0.93477 0.84415,0 1.65492,-0.33863 2.25107,-0.93477 0.59616,-0.59616 0.93479,-1.40691 0.93479,-2.25107 z m 0,0"
     id="path92" />
  <path
     style="fill:#fdfdfd;fill-opacity:1;fill-rule:evenodd;stroke:#000000;stroke-width:0.796555;stroke-linecap:square;stroke-linejoin:miter;stroke-miterlimit:3.25;stroke-dasharray:none;stroke-opacity:1"
     d="m 478.06238,454.7688 c 0,-0.84414 -0.33387,-1.6549 -0.93476,-2.25582 -0.5961,-0.59616 -1.40693,-0.93 -2.25107,-0.93 -0.84416,0 -1.65493,0.33387 -2.25107,0.93 -0.60092,0.60091 -0.93477,1.41168 -0.93477,2.25582 0,0.84416 0.33388,1.65493 0.93477,2.25108 0.59616,0.59616 1.40691,0.93478 2.25107,0.93478 0.84414,0 1.65492,-0.33869 2.25107,-0.93478 0.60091,-0.5961 0.93476,-1.40692 0.93476,-2.25108 z m 0,0"
     id="path94" />
  <path
     style="fill:#fdfdfd;fill-opacity:1;fill-rule:evenodd;stroke:#000000;stroke-width:0.796555;stroke-linecap:square;stroke-linejoin:miter;stroke-miterlimit:3.25;stroke-dasharray:none;stroke-opacity:1"
     d="m 617.92784,350.07382 c 0,-0.84412 -0.33358,-1.65491 -0.93016,-2.25107 -0.59549,-0.60091 -1.40679,-0.93476 -2.25583,-0.93476 -0.84417,0 -1.65487,0.33388 -2.25109,0.93476 -0.59549,0.59616 -0.93466,1.40695 -0.93466,2.25107 0,0.84416 0.33778,1.65493 0.93466,2.25108 0.5961,0.59616 1.40692,0.93478 2.25109,0.93478 0.84904,0 1.6598,-0.33863 2.25583,-0.93478 0.5961,-0.59616 0.93016,-1.40692 0.93016,-2.25108 z m 0,0"
     id="path96" />
  <path
     style="fill:#fdfdfd;fill-opacity:1;fill-rule:evenodd;stroke:#000000;stroke-width:0.796555;stroke-linecap:square;stroke-linejoin:miter;stroke-miterlimit:3.25;stroke-dasharray:none;stroke-opacity:1"
     d="m 391.0931,393.00538 c 0,-0.84414 -0.33869,-1.6549 -0.93476,-2.25105 -0.59615,-0.59616 -1.40693,-0.93478 -2.25106,-0.93478 -0.84416,0 -1.65493,0.3387 -2.25586,0.93478 -0.59615,0.59615 -0.92999,1.40691 -0.92999,2.25105 0,0.84416 0.33388,1.65492 0.92999,2.25584 0.60092,0.59616 1.4117,0.93002 2.25586,0.93002 0.84413,0 1.65489,-0.33388 2.25106,-0.93002 0.59616,-0.60091 0.93476,-1.41168 0.93476,-2.25584 z m 0,0"
     id="path98" />
  <path
     style="fill:#fdfdfd;fill-opacity:1;fill-rule:evenodd;stroke:#000000;stroke-width:0.796555;stroke-linecap:square;stroke-linejoin:miter;stroke-miterlimit:3.25;stroke-dasharray:none;stroke-opacity:1"
     d="m 401.25706,386.48633 c 0,-0.84892 -0.33387,-1.65967 -0.93477,-2.25584 -0.59616,-0.59615 -1.40691,-0.92999 -2.25107,-0.92999 -0.84414,0 -1.6549,0.33388 -2.25107,0.92999 -0.60091,0.59616 -0.93476,1.40692 -0.93476,2.25584 0,0.84414 0.33388,1.65491 0.93476,2.25107 0.59616,0.59609 1.40693,0.93477 2.25107,0.93477 0.84416,0 1.65491,-0.33869 2.25107,-0.93477 0.60091,-0.59616 0.93477,-1.40693 0.93477,-2.25107 z m 0,0"
     id="path100" />
  <path
     style="fill:#fdfdfd;fill-opacity:1;fill-rule:evenodd;stroke:#000000;stroke-width:0.796555;stroke-linecap:square;stroke-linejoin:miter;stroke-miterlimit:3.25;stroke-dasharray:none;stroke-opacity:1"
     d="m 461.3159,409.23506 c 0,-0.84892 -0.33387,-1.65968 -0.93001,-2.25582 -0.60091,-0.59616 -1.41168,-0.93 -2.25583,-0.93 -0.84413,0 -1.6549,0.33388 -2.25106,0.93 -0.59616,0.59616 -0.93477,1.4069 -0.93477,2.25582 0,0.84415 0.33869,1.65492 0.93477,2.25107 0.59616,0.59616 1.40693,0.93478 2.25106,0.93478 0.84415,0 1.65492,-0.33864 2.25583,-0.93478 0.59616,-0.59616 0.93001,-1.40692 0.93001,-2.25107 z m 0,0"
     id="path102" />
  <path
     style="fill:#fdfdfd;fill-opacity:1;fill-rule:evenodd;stroke:#000000;stroke-width:0.796555;stroke-linecap:square;stroke-linejoin:miter;stroke-miterlimit:3.25;stroke-dasharray:none;stroke-opacity:1"
     d="m 622.79663,337.05382 c 0,-0.84416 -0.33357,-1.65491 -0.92997,-2.25106 -0.60031,-0.59616 -1.41179,-0.93478 -2.25584,-0.93478 -0.84417,0 -1.65498,0.33863 -2.2512,0.93478 -0.5955,0.5961 -0.93461,1.4069 -0.93461,2.25106 0,0.84415 0.33839,1.65491 0.93461,2.25584 0.59549,0.5961 1.40703,0.92997 2.2512,0.92997 0.84405,0 1.65492,-0.33388 2.25584,-0.92997 0.5961,-0.60091 0.92997,-1.41169 0.92997,-2.25584 z m 0,0"
     id="path104" />
  <path
     style="fill:#fdfdfd;fill-opacity:1;fill-rule:evenodd;stroke:#000000;stroke-width:0.796555;stroke-linecap:square;stroke-linejoin:miter;stroke-miterlimit:3.25;stroke-dasharray:none;stroke-opacity:1"
     d="m 464.02691,477.02793 c 0,-0.84414 -0.3387,-1.6549 -0.93478,-2.25106 -0.59616,-0.60091 -1.40691,-0.93477 -2.25106,-0.93477 -0.84416,0 -1.65493,0.33387 -2.25585,0.93477 -0.59616,0.59616 -0.92998,1.40692 -0.92998,2.25106 0,0.84415 0.33387,1.65492 0.92998,2.25107 0.60092,0.60091 1.41169,0.93478 2.25585,0.93478 0.84415,0 1.65491,-0.33388 2.25106,-0.93478 0.59616,-0.5961 0.93478,-1.40692 0.93478,-2.25107 z m 0,0"
     id="path106" />
  <path
     style="fill:#fdfdfd;fill-opacity:1;fill-rule:evenodd;stroke:#000000;stroke-width:0.796555;stroke-linecap:square;stroke-linejoin:miter;stroke-miterlimit:3.25;stroke-dasharray:none;stroke-opacity:1"
     d="m 533.57874,396.44172 c 0,-0.84891 -0.33863,-1.65968 -0.93477,-2.25582 -0.5961,-0.59616 -1.40692,-0.93 -2.25107,-0.93 -0.84892,0 -1.65968,0.33388 -2.25584,0.93 -0.59616,0.59616 -0.92998,1.40691 -0.92998,2.25582 0,0.84415 0.33387,1.65492 0.92998,2.25107 0.59616,0.59616 1.40692,0.93477 2.25584,0.93477 0.84415,0 1.65493,-0.33863 2.25107,-0.93477 0.59616,-0.59616 0.93477,-1.40692 0.93477,-2.25107 z m 0,0"
     id="path108" />
  <path
     style="fill:#fdfdfd;fill-opacity:1;fill-rule:evenodd;stroke:#000000;stroke-width:0.796555;stroke-linecap:square;stroke-linejoin:miter;stroke-miterlimit:3.25;stroke-dasharray:none;stroke-opacity:1"
     d="m 508.65394,392.28004 c 0,-0.84414 -0.33863,-1.65491 -0.93476,-2.25106 -0.59615,-0.60092 -1.40691,-0.93478 -2.25106,-0.93478 -0.84895,0 -1.65492,0.33387 -2.25584,0.93478 -0.5961,0.59616 -0.93,1.40692 -0.93,2.25106 0,0.84414 0.33387,1.65491 0.93,2.25106 0.60091,0.60092 1.40689,0.93478 2.25584,0.93478 0.84415,0 1.65489,-0.33388 2.25106,-0.93478 0.59616,-0.59615 0.93476,-1.40692 0.93476,-2.25106 z m 0,0"
     id="path110" />
  <path
     style="fill:#fdfdfd;fill-opacity:1;fill-rule:evenodd;stroke:#000000;stroke-width:0.796555;stroke-linecap:square;stroke-linejoin:miter;stroke-miterlimit:3.25;stroke-dasharray:none;stroke-opacity:1"
     d="m 451.87729,412.71672 c 0,-0.84891 -0.33387,-1.6549 -0.92999,-2.25581 -0.60091,-0.59616 -1.4117,-0.93001 -2.25583,-0.93001 -0.84415,0 -1.65491,0.33388 -2.25107,0.93001 -0.59615,0.60091 -0.93477,1.4069 -0.93477,2.25581 0,0.84417 0.33863,1.65493 0.93477,2.25107 0.59616,0.59615 1.40692,0.93477 2.25107,0.93477 0.84413,0 1.65492,-0.33863 2.25583,-0.93477 0.59616,-0.59616 0.92999,-1.4069 0.92999,-2.25107 z m 0,0"
     id="path112" />
  <path
     style="fill:#fdfdfd;fill-opacity:1;fill-rule:evenodd;stroke:#000000;stroke-width:0.796555;stroke-linecap:square;stroke-linejoin:miter;stroke-miterlimit:3.25;stroke-dasharray:none;stroke-opacity:1"
     d="m 564.33351,302.44564 c 0,-0.8489 -0.33387,-1.65967 -0.93476,-2.25583 -0.5961,-0.59615 -1.40692,-0.92999 -2.25107,-0.92999 -0.84416,0 -1.65491,0.33387 -2.25107,0.92999 -0.60091,0.59616 -0.93476,1.40693 -0.93476,2.25583 0,0.84416 0.33387,1.65492 0.93476,2.25107 0.59616,0.5961 1.40691,0.93478 2.25107,0.93478 0.84415,0 1.65493,-0.33863 2.25107,-0.93478 0.60091,-0.59616 0.93476,-1.40691 0.93476,-2.25107 z m 0,0"
     id="path114" />
  <path
     style="fill:#fdfdfd;fill-opacity:1;fill-rule:evenodd;stroke:#000000;stroke-width:0.796555;stroke-linecap:square;stroke-linejoin:miter;stroke-miterlimit:3.25;stroke-dasharray:none;stroke-opacity:1"
     d="m 465.0696,422.3004 c 0,-0.84416 -0.33388,-1.65493 -0.93001,-2.25107 -0.60092,-0.59616 -1.40692,-0.93478 -2.25584,-0.93478 -0.84414,0 -1.65492,0.33864 -2.25106,0.93478 -0.59616,0.59615 -0.93476,1.40691 -0.93476,2.25107 0,0.84891 0.33869,1.65967 0.93476,2.25582 0.59609,0.59616 1.40692,0.92999 2.25106,0.92999 0.84892,0 1.65492,-0.33387 2.25584,-0.92999 0.59616,-0.59616 0.93001,-1.40691 0.93001,-2.25582 z m 0,0"
     id="path116" />
  <path
     style="fill:#fdfdfd;fill-opacity:1;fill-rule:evenodd;stroke:#000000;stroke-width:0.796555;stroke-linecap:square;stroke-linejoin:miter;stroke-miterlimit:3.25;stroke-dasharray:none;stroke-opacity:1"
     d="m 496.48622,444.94939 c 0,-0.84413 -0.33387,-1.65491 -0.92999,-2.25105 -0.60092,-0.59616 -1.41169,-0.93478 -2.25584,-0.93478 -0.84416,0 -1.65492,0.33864 -2.25107,0.93478 -0.59615,0.59616 -0.93477,1.40692 -0.93477,2.25105 0,0.84892 0.33869,1.65492 0.93477,2.25585 0.59616,0.59616 1.40691,0.93 2.25107,0.93 0.84415,0 1.65493,-0.33387 2.25584,-0.93 0.59615,-0.60092 0.92999,-1.40693 0.92999,-2.25585 z m 0,0"
     id="path118" />
  <path
     style="fill:#fdfdfd;fill-opacity:1;fill-rule:evenodd;stroke:#000000;stroke-width:0.796555;stroke-linecap:square;stroke-linejoin:miter;stroke-miterlimit:3.25;stroke-dasharray:none;stroke-opacity:1"
     d="m 466.1304,457.08085 c 0,-0.84415 -0.33388,-1.6549 -0.93,-2.25106 -0.60091,-0.5961 -1.41169,-0.93477 -2.25583,-0.93477 -0.84415,0 -1.65493,0.33863 -2.25107,0.93477 -0.59615,0.59615 -0.93477,1.40691 -0.93477,2.25106 0,0.84893 0.33863,1.6597 0.93477,2.25584 0.59616,0.59616 1.40692,0.93001 2.25107,0.93001 0.84414,0 1.6549,-0.33388 2.25583,-0.93001 0.59616,-0.59615 0.93,-1.40691 0.93,-2.25584 z m 0,0"
     id="path120" />
  <path
     style="fill:#fdfdfd;fill-opacity:1;fill-rule:evenodd;stroke:#000000;stroke-width:0.796555;stroke-linecap:square;stroke-linejoin:miter;stroke-miterlimit:3.25;stroke-dasharray:none;stroke-opacity:1"
     d="m 510.37667,437.6415 c 0,-0.84413 -0.33863,-1.6549 -0.93478,-2.25106 -0.59616,-0.59616 -1.40692,-0.93477 -2.25107,-0.93477 -0.84892,0 -1.65492,0.33863 -2.25582,0.93477 -0.59616,0.59616 -0.93,1.40693 -0.93,2.25106 0,0.84416 0.33387,1.65492 0.93,2.25585 0.60091,0.59616 1.4069,0.93 2.25582,0.93 0.84415,0 1.65491,-0.33388 2.25107,-0.93 0.59616,-0.60091 0.93478,-1.41169 0.93478,-2.25585 z m 0,0"
     id="path122" />
  <path
     style="fill:#fdfdfd;fill-opacity:1;fill-rule:evenodd;stroke:#000000;stroke-width:0.796555;stroke-linecap:square;stroke-linejoin:miter;stroke-miterlimit:3.25;stroke-dasharray:none;stroke-opacity:1"
     d="m 215.43186,472.50358 c 0,-0.84416 -0.33387,-1.65493 -0.93477,-2.25107 -0.59616,-0.60092 -1.40691,-0.93478 -2.25106,-0.93478 -0.84416,0 -1.65492,0.33387 -2.25107,0.93478 -0.60091,0.59616 -0.93477,1.40691 -0.93477,2.25107 0,0.84413 0.33388,1.65489 0.93477,2.25105 0.59616,0.60092 1.40691,0.93478 2.25107,0.93478 0.84415,0 1.65491,-0.33388 2.25106,-0.93478 0.60091,-0.59615 0.93477,-1.40692 0.93477,-2.25105 z m 0,0"
     id="path124" />
  <path
     style="fill:#fdfdfd;fill-opacity:1;fill-rule:evenodd;stroke:#000000;stroke-width:0.796555;stroke-linecap:square;stroke-linejoin:miter;stroke-miterlimit:3.25;stroke-dasharray:none;stroke-opacity:1"
     d="m 175.66463,501.42685 c 0,-0.84416 -0.33869,-1.65493 -0.93476,-2.25107 -0.59616,-0.59616 -1.40692,-0.93476 -2.25107,-0.93476 -0.84415,0 -1.65491,0.33863 -2.25583,0.93476 -0.59616,0.59609 -0.93001,1.40691 -0.93001,2.25107 0,0.84414 0.33388,1.65491 0.93001,2.25105 0.60092,0.60092 1.41168,0.93478 2.25583,0.93478 0.84415,0 1.65492,-0.33387 2.25107,-0.93478 0.59616,-0.59615 0.93476,-1.40691 0.93476,-2.25105 z m 0,0"
     id="path126" />
  <path
     style="fill:#fdfdfd;fill-opacity:1;fill-rule:evenodd;stroke:#000000;stroke-width:0.796555;stroke-linecap:square;stroke-linejoin:miter;stroke-miterlimit:3.25;stroke-dasharray:none;stroke-opacity:1"
     d="m 526.49753,428.93734 c 0,-0.84415 -0.33864,-1.65492 -0.93478,-2.25584 -0.59615,-0.59609 -1.40692,-0.93001 -2.25106,-0.93001 -0.84414,0 -1.65492,0.33388 -2.25583,0.93001 -0.59616,0.60092 -0.93,1.41169 -0.93,2.25584 0,0.84414 0.33387,1.65491 0.93,2.25105 0.60091,0.59616 1.41169,0.93477 2.25583,0.93477 0.84414,0 1.65491,-0.33863 2.25106,-0.93477 0.59616,-0.59616 0.93478,-1.40691 0.93478,-2.25105 z m 0,0"
     id="path128" />
  <path
     style="fill:#fdfdfd;fill-opacity:1;fill-rule:evenodd;stroke:#000000;stroke-width:0.796555;stroke-linecap:square;stroke-linejoin:miter;stroke-miterlimit:3.25;stroke-dasharray:none;stroke-opacity:1"
     d="m 616.34113,326.11013 c 0,-0.84414 -0.33357,-1.65492 -0.93015,-2.25583 -0.60031,-0.59616 -1.40691,-0.93 -2.25578,-0.93 -0.84417,0 -1.65492,0.33388 -2.25108,0.93 -0.5961,0.60091 -0.93473,1.41169 -0.93473,2.25583 0,0.84415 0.33779,1.65492 0.93473,2.25107 0.5955,0.59616 1.40691,0.93477 2.25108,0.93477 0.84887,0 1.65493,-0.33869 2.25578,-0.93477 0.5955,-0.59616 0.93015,-1.40692 0.93015,-2.25107 z m 0,0"
     id="path130" />
  <path
     style="fill:#fdfdfd;fill-opacity:1;fill-rule:evenodd;stroke:#000000;stroke-width:0.796555;stroke-linecap:square;stroke-linejoin:miter;stroke-miterlimit:3.25;stroke-dasharray:none;stroke-opacity:1"
     d="m 418.76515,380.85581 c 0,-0.84892 -0.33388,-1.65969 -0.93477,-2.25584 -0.59616,-0.59616 -1.40691,-0.93 -2.25106,-0.93 -0.84415,0 -1.65493,0.33387 -2.25107,0.93 -0.60091,0.59616 -0.93477,1.40692 -0.93477,2.25584 0,0.84415 0.33388,1.65491 0.93477,2.25106 0.59616,0.59616 1.40692,0.93476 2.25107,0.93476 0.84415,0 1.6549,-0.33863 2.25106,-0.93476 0.60091,-0.59615 0.93477,-1.40691 0.93477,-2.25106 z m 0,0"
     id="path132" />
  <path
     style="fill:#fdfdfd;fill-opacity:1;fill-rule:evenodd;stroke:#000000;stroke-width:0.796555;stroke-linecap:square;stroke-linejoin:miter;stroke-miterlimit:3.25;stroke-dasharray:none;stroke-opacity:1"
     d="m 609.2961,362.74929 c 0,-0.84415 -0.33357,-1.65491 -0.93003,-2.25107 -0.60031,-0.60092 -1.41167,-0.93477 -2.2559,-0.93477 -0.84423,0 -1.65492,0.33387 -2.25108,0.93477 -0.5955,0.5961 -0.93473,1.40692 -0.93473,2.25107 0,0.84416 0.33779,1.65492 0.93473,2.25106 0.5961,0.60092 1.40685,0.93477 2.25108,0.93477 0.84423,0 1.65498,-0.33387 2.2559,-0.93477 0.5961,-0.59616 0.93003,-1.4069 0.93003,-2.25106 z m 0,0"
     id="path134" />
  <path
     style="fill:#fdfdfd;fill-opacity:1;fill-rule:evenodd;stroke:#000000;stroke-width:0.796555;stroke-linecap:square;stroke-linejoin:miter;stroke-miterlimit:3.25;stroke-dasharray:none;stroke-opacity:1"
     d="m 437.43382,382.06169 c 0,-0.84414 -0.33388,-1.65492 -0.93,-2.25106 -0.59616,-0.59615 -1.40692,-0.93477 -2.25585,-0.93477 -0.84413,0 -1.6549,0.33863 -2.25106,0.93477 -0.59609,0.5961 -0.93476,1.40692 -0.93476,2.25106 0,0.84892 0.33863,1.65491 0.93476,2.25585 0.59616,0.59615 1.40693,0.92998 2.25106,0.92998 0.84893,0 1.6597,-0.33387 2.25585,-0.92998 0.5961,-0.60092 0.93,-1.40693 0.93,-2.25585 z m 0,0"
     id="path136" />
  <path
     style="fill:#fdfdfd;fill-opacity:1;fill-rule:evenodd;stroke:#000000;stroke-width:0.796555;stroke-linecap:square;stroke-linejoin:miter;stroke-miterlimit:3.25;stroke-dasharray:none;stroke-opacity:1"
     d="m 552.09325,405.50858 c 0,-0.84415 -0.33387,-1.65492 -0.93478,-2.25108 -0.59615,-0.5961 -1.4069,-0.93477 -2.25105,-0.93477 -0.84415,0 -1.65492,0.3387 -2.25106,0.93477 -0.60092,0.59616 -0.93479,1.40693 -0.93479,2.25108 0,0.84415 0.33387,1.65492 0.93479,2.25107 0.59616,0.60091 1.40691,0.93477 2.25106,0.93477 0.84415,0 1.65491,-0.33387 2.25105,-0.93477 0.60092,-0.59616 0.93478,-1.40692 0.93478,-2.25107 z m 0,0"
     id="path138" />
  <path
     style="fill:#fdfdfd;fill-opacity:1;fill-rule:evenodd;stroke:#000000;stroke-width:0.796555;stroke-linecap:square;stroke-linejoin:miter;stroke-miterlimit:3.25;stroke-dasharray:none;stroke-opacity:1"
     d="m 348.65116,449.05669 c 0,-0.84415 -0.33388,-1.65492 -0.93477,-2.25584 -0.5961,-0.59615 -1.40691,-0.93 -2.25106,-0.93 -0.84415,0 -1.65493,0.33387 -2.25107,0.93 -0.60091,0.60092 -0.93477,1.41169 -0.93477,2.25584 0,0.84414 0.33387,1.65491 0.93477,2.25105 0.5961,0.59616 1.40692,0.93479 2.25107,0.93479 0.84415,0 1.65492,-0.33869 2.25106,-0.93479 0.60091,-0.59616 0.93477,-1.40691 0.93477,-2.25105 z m 0,0"
     id="path140" />
  <path
     style="fill:#fdfdfd;fill-opacity:1;fill-rule:evenodd;stroke:#000000;stroke-width:0.796555;stroke-linecap:square;stroke-linejoin:miter;stroke-miterlimit:3.25;stroke-dasharray:none;stroke-opacity:1"
     d="m 33.169928,439.79943 c 0,-0.84414 -0.33385,-1.65492 -0.929994,-2.25107 -0.600921,-0.59615 -1.411685,-0.93476 -2.255835,-0.93476 -0.844149,0 -1.654916,0.33863 -2.251066,0.93476 -0.596146,0.59616 -0.934765,1.40693 -0.934765,2.25107 0,0.84414 0.338608,1.65491 0.934765,2.25584 0.596146,0.59616 1.406917,0.93001 2.251066,0.93001 0.84415,0 1.654914,-0.33388 2.255835,-0.93001 0.596145,-0.60091 0.929994,-1.4117 0.929994,-2.25584 z m 0,0"
     id="path142" />
  <path
     style="fill:#fdfdfd;fill-opacity:1;fill-rule:evenodd;stroke:#000000;stroke-width:0.796555;stroke-linecap:square;stroke-linejoin:miter;stroke-miterlimit:3.25;stroke-dasharray:none;stroke-opacity:1"
     d="m 458.96759,462.00415 c 0,-0.84415 -0.33387,-1.65491 -0.93477,-2.25107 -0.59616,-0.59616 -1.40692,-0.93476 -2.25106,-0.93476 -0.84415,0 -1.65492,0.33863 -2.25107,0.93476 -0.60091,0.59616 -0.93477,1.40692 -0.93477,2.25107 0,0.84415 0.33388,1.65491 0.93477,2.25583 0.59616,0.59616 1.40692,0.93 2.25107,0.93 0.84414,0 1.6549,-0.33387 2.25106,-0.93 0.60091,-0.60092 0.93477,-1.41168 0.93477,-2.25583 z m 0,0"
     id="path144" />
  <path
     style="fill:#fdfdfd;fill-opacity:1;fill-rule:evenodd;stroke:#000000;stroke-width:0.796555;stroke-linecap:square;stroke-linejoin:miter;stroke-miterlimit:3.25;stroke-dasharray:none;stroke-opacity:1"
     d="m 473.23883,404.61097 c 0,-0.84416 -0.33863,-1.65493 -0.93478,-2.25107 -0.5961,-0.60091 -1.4069,-0.93477 -2.25105,-0.93477 -0.84893,0 -1.65969,0.33387 -2.25585,0.93477 -0.5961,0.59616 -0.92999,1.40691 -0.92999,2.25107 0,0.84413 0.33388,1.6549 0.92999,2.25106 0.59616,0.60092 1.40692,0.93477 2.25585,0.93477 0.84415,0 1.6549,-0.33387 2.25105,-0.93477 0.59616,-0.59616 0.93478,-1.40693 0.93478,-2.25106 z m 0,0"
     id="path146" />
  <path
     style="fill:#fdfdfd;fill-opacity:1;fill-rule:evenodd;stroke:#000000;stroke-width:0.796555;stroke-linecap:square;stroke-linejoin:miter;stroke-miterlimit:3.25;stroke-dasharray:none;stroke-opacity:1"
     d="m 445.66653,383.40359 c 0,-0.84414 -0.33864,-1.65492 -0.93478,-2.25107 -0.59615,-0.60091 -1.40692,-0.93476 -2.25107,-0.93476 -0.84415,0 -1.65492,0.33387 -2.25583,0.93476 -0.59616,0.59616 -0.93,1.40693 -0.93,2.25107 0,0.84414 0.33387,1.65493 0.93,2.25107 0.60091,0.60091 1.41168,0.93476 2.25583,0.93476 0.84415,0 1.65492,-0.33387 2.25107,-0.93476 0.59616,-0.5961 0.93478,-1.40693 0.93478,-2.25107 z m 0,0"
     id="path148" />
  <path
     style="fill:#fdfdfd;fill-opacity:1;fill-rule:evenodd;stroke:#000000;stroke-width:0.796555;stroke-linecap:square;stroke-linejoin:miter;stroke-miterlimit:3.25;stroke-dasharray:none;stroke-opacity:1"
     d="m 592.83965,319.55479 c 0,-0.84414 -0.33357,-1.6549 -0.93473,-2.25107 -0.59549,-0.60091 -1.40691,-0.93476 -2.25102,-0.93476 -0.84417,0 -1.6549,0.33387 -2.25106,0.93476 -0.59622,0.59616 -0.9348,1.40693 -0.9348,2.25107 0,0.84416 0.33833,1.65492 0.9348,2.25106 0.59585,0.60092 1.40689,0.93478 2.25106,0.93478 0.84411,0 1.65474,-0.33388 2.25102,-0.93478 0.60092,-0.59616 0.93473,-1.4069 0.93473,-2.25106 z m 0,0"
     id="path150" />
  <path
     style="fill:#fdfdfd;fill-opacity:1;fill-rule:evenodd;stroke:#000000;stroke-width:0.796555;stroke-linecap:square;stroke-linejoin:miter;stroke-miterlimit:3.25;stroke-dasharray:none;stroke-opacity:1"
     d="m 321.74978,431.37633 c 0,-0.84416 -0.33382,-1.65491 -0.93475,-2.25107 -0.59616,-0.59616 -1.40692,-0.93477 -2.25107,-0.93477 -0.84415,0 -1.6549,0.33863 -2.25106,0.93477 -0.60092,0.59616 -0.93477,1.40691 -0.93477,2.25107 0,0.84892 0.33387,1.65491 0.93477,2.25582 0.5961,0.5961 1.40691,0.93001 2.25106,0.93001 0.84415,0 1.65492,-0.33388 2.25107,-0.93001 0.60092,-0.60091 0.93475,-1.4069 0.93475,-2.25582 z m 0,0"
     id="path152" />
  <path
     style="fill:#fdfdfd;fill-opacity:1;fill-rule:evenodd;stroke:#000000;stroke-width:0.796555;stroke-linecap:square;stroke-linejoin:miter;stroke-miterlimit:3.25;stroke-dasharray:none;stroke-opacity:1"
     d="m 417.06057,424.92979 c 0,-0.84415 -0.33387,-1.65493 -0.93,-2.25107 -0.60092,-0.60092 -1.40691,-0.93477 -2.25582,-0.93477 -0.84415,0 -1.65494,0.33388 -2.25106,0.93477 -0.59616,0.59616 -0.93479,1.40692 -0.93479,2.25107 0,0.84414 0.33863,1.65491 0.93479,2.25106 0.59609,0.60091 1.40691,0.93477 2.25106,0.93477 0.84891,0 1.65492,-0.33388 2.25582,-0.93477 0.59616,-0.59616 0.93,-1.40692 0.93,-2.25106 z m 0,0"
     id="path154" />
  <path
     style="fill:#fdfdfd;fill-opacity:1;fill-rule:evenodd;stroke:#000000;stroke-width:0.796555;stroke-linecap:square;stroke-linejoin:miter;stroke-miterlimit:3.25;stroke-dasharray:none;stroke-opacity:1"
     d="m 354.85289,422.74468 c 0,-0.84416 -0.33388,-1.65492 -0.93,-2.25107 -0.60092,-0.60091 -1.4117,-0.93478 -2.25583,-0.93478 -0.84416,0 -1.65493,0.33388 -2.25107,0.93478 -0.59609,0.59616 -0.93477,1.40691 -0.93477,2.25107 0,0.84413 0.33863,1.6549 0.93477,2.25106 0.59616,0.60092 1.40691,0.93475 2.25107,0.93475 0.84413,0 1.6549,-0.33387 2.25583,-0.93475 0.59616,-0.59615 0.93,-1.40693 0.93,-2.25106 z m 0,0"
     id="path156" />
  <path
     style="fill:#fdfdfd;fill-opacity:1;fill-rule:evenodd;stroke:#000000;stroke-width:0.796555;stroke-linecap:square;stroke-linejoin:miter;stroke-miterlimit:3.25;stroke-dasharray:none;stroke-opacity:1"
     d="m 540.75968,417.99366 c 0,-0.84417 -0.33387,-1.65493 -0.92999,-2.25109 -0.59616,-0.59609 -1.40692,-0.93475 -2.25583,-0.93475 -0.84415,0 -1.65492,0.33869 -2.25107,0.93475 -0.59616,0.59616 -0.93477,1.40692 -0.93477,2.25109 0,0.84891 0.33863,1.65491 0.93477,2.25583 0.59616,0.5961 1.40692,0.93 2.25107,0.93 0.84891,0 1.65967,-0.33387 2.25583,-0.93 0.59609,-0.60091 0.92999,-1.40692 0.92999,-2.25583 z m 0,0"
     id="path158" />
  <path
     style="fill:#fdfdfd;fill-opacity:1;fill-rule:evenodd;stroke:#000000;stroke-width:0.796555;stroke-linecap:square;stroke-linejoin:miter;stroke-miterlimit:3.25;stroke-dasharray:none;stroke-opacity:1"
     d="m 378.74404,435.2116 c 0,-0.84416 -0.33387,-1.65492 -0.93476,-2.25107 -0.59615,-0.60091 -1.40692,-0.93477 -2.25105,-0.93477 -0.84418,0 -1.65493,0.33387 -2.25107,0.93477 -0.60092,0.59616 -0.93479,1.40691 -0.93479,2.25107 0,0.84415 0.33388,1.65492 0.93479,2.25106 0.59609,0.60091 1.40689,0.93476 2.25107,0.93476 0.84413,0 1.65489,-0.33387 2.25105,-0.93476 0.60092,-0.59616 0.93476,-1.40691 0.93476,-2.25106 z m 0,0"
     id="path160" />
  <path
     style="fill:#fdfdfd;fill-opacity:1;fill-rule:evenodd;stroke:#000000;stroke-width:0.796555;stroke-linecap:square;stroke-linejoin:miter;stroke-miterlimit:3.25;stroke-dasharray:none;stroke-opacity:1"
     d="m 99.376114,486.99241 c 0,-0.84414 -0.338631,-1.65492 -0.934765,-2.25106 -0.596158,-0.59616 -1.406917,-0.93477 -2.251064,-0.93477 -0.844171,0 -1.654924,0.33863 -2.255844,0.93477 -0.596158,0.5961 -0.929991,1.40692 -0.929991,2.25106 0,0.84414 0.333875,1.65491 0.929991,2.25583 0.600914,0.59616 1.411673,0.93 2.255844,0.93 0.844147,0 1.654912,-0.33387 2.251064,-0.93 0.596158,-0.60091 0.934765,-1.41169 0.934765,-2.25583 z m 0,0"
     id="path162" />
  <path
     style="fill:#fdfdfd;fill-opacity:1;fill-rule:evenodd;stroke:#000000;stroke-width:0.796555;stroke-linecap:square;stroke-linejoin:miter;stroke-miterlimit:3.25;stroke-dasharray:none;stroke-opacity:1"
     d="m 373.29488,393.81233 c 0,-0.84413 -0.33388,-1.65492 -0.93,-2.25582 -0.60092,-0.59616 -1.4117,-0.93 -2.25584,-0.93 -0.84415,0 -1.65493,0.33388 -2.25107,0.93 -0.5961,0.60092 -0.93478,1.41169 -0.93478,2.25582 0,0.84416 0.33863,1.65493 0.93478,2.25108 0.59616,0.59616 1.40692,0.93476 2.25107,0.93476 0.84414,0 1.65491,-0.33863 2.25584,-0.93476 0.59615,-0.59616 0.93,-1.40692 0.93,-2.25108 z m 0,0"
     id="path164" />
  <path
     style="fill:#fdfdfd;fill-opacity:1;fill-rule:evenodd;stroke:#000000;stroke-width:0.796555;stroke-linecap:square;stroke-linejoin:miter;stroke-miterlimit:3.25;stroke-dasharray:none;stroke-opacity:1"
     d="m 388.05573,431.9022 c 0,-0.84893 -0.33387,-1.65493 -0.93478,-2.25585 -0.59616,-0.59615 -1.40692,-0.93 -2.25106,-0.93 -0.84415,0 -1.65493,0.33388 -2.25108,0.93 -0.60091,0.60092 -0.93476,1.40692 -0.93476,2.25585 0,0.84413 0.33388,1.6549 0.93476,2.25105 0.59616,0.59616 1.40693,0.93478 2.25108,0.93478 0.84414,0 1.65491,-0.33857 2.25106,-0.93478 0.60091,-0.59616 0.93478,-1.40692 0.93478,-2.25105 z m 0,0"
     id="path166" />
  <path
     style="fill:#fdfdfd;fill-opacity:1;fill-rule:evenodd;stroke:#000000;stroke-width:0.796555;stroke-linecap:square;stroke-linejoin:miter;stroke-miterlimit:3.25;stroke-dasharray:none;stroke-opacity:1"
     d="m 366.30433,412.24525 c 0,-0.84415 -0.33387,-1.65491 -0.92999,-2.25106 -0.60092,-0.59616 -1.41169,-0.93478 -2.25584,-0.93478 -0.84416,0 -1.65493,0.33869 -2.25107,0.93478 -0.59616,0.59615 -0.93476,1.40691 -0.93476,2.25106 0,0.84892 0.33863,1.65969 0.93476,2.25584 0.5961,0.59616 1.40691,0.93 2.25107,0.93 0.84415,0 1.65491,-0.33388 2.25584,-0.93 0.59615,-0.59616 0.92999,-1.40692 0.92999,-2.25584 z m 0,0"
     id="path168" />
  <path
     style="fill:#fdfdfd;fill-opacity:1;fill-rule:evenodd;stroke:#000000;stroke-width:0.796555;stroke-linecap:square;stroke-linejoin:miter;stroke-miterlimit:3.25;stroke-dasharray:none;stroke-opacity:1"
     d="m 61.295315,458.50435 c 0,-0.84415 -0.333875,-1.65491 -0.934772,-2.25105 -0.596158,-0.60092 -1.406905,-0.93478 -2.251058,-0.93478 -0.844152,0 -1.654923,0.33387 -2.251075,0.93478 -0.600915,0.59615 -0.934772,1.4069 -0.934772,2.25105 0,0.84415 0.333875,1.65492 0.934772,2.25107 0.596158,0.60092 1.406923,0.93477 2.251075,0.93477 0.844153,0 1.654918,-0.33388 2.251058,-0.93477 0.600915,-0.59615 0.934772,-1.40692 0.934772,-2.25107 z m 0,0"
     id="path170" />
  <path
     style="fill:#fdfdfd;fill-opacity:1;fill-rule:evenodd;stroke:#000000;stroke-width:0.796555;stroke-linecap:square;stroke-linejoin:miter;stroke-miterlimit:3.25;stroke-dasharray:none;stroke-opacity:1"
     d="m 564.43325,215.36756 c 0,-0.84415 -0.33857,-1.65491 -0.93477,-2.25107 -0.59616,-0.59615 -1.40692,-0.93477 -2.25106,-0.93477 -0.84415,0 -1.65492,0.33863 -2.25584,0.93477 -0.59616,0.59616 -0.93,1.40692 -0.93,2.25107 0,0.84893 0.33387,1.65492 0.93,2.25584 0.60091,0.59615 1.41169,0.92999 2.25584,0.92999 0.84414,0 1.65491,-0.33387 2.25106,-0.92999 0.59616,-0.60092 0.93477,-1.40691 0.93477,-2.25584 z m 0,0"
     id="path172" />
  <path
     style="fill:#fdfdfd;fill-opacity:1;fill-rule:evenodd;stroke:#000000;stroke-width:0.796555;stroke-linecap:square;stroke-linejoin:miter;stroke-miterlimit:3.25;stroke-dasharray:none;stroke-opacity:1"
     d="m 570.5443,398.17349 c 0,-0.84416 -0.33387,-1.65492 -0.93,-2.25584 -0.60092,-0.59616 -1.41169,-0.93001 -2.25583,-0.93001 -0.84416,0 -1.65492,0.33388 -2.25107,0.93001 -0.59616,0.60092 -0.93477,1.41168 -0.93477,2.25584 0,0.84413 0.33869,1.65491 0.93477,2.25107 0.59615,0.59616 1.40691,0.93476 2.25107,0.93476 0.84414,0 1.6549,-0.33869 2.25583,-0.93476 0.59616,-0.59616 0.93,-1.40694 0.93,-2.25107 z m 0,0"
     id="path174" />
  <path
     style="fill:#fdfdfd;fill-opacity:1;fill-rule:evenodd;stroke:#000000;stroke-width:0.796555;stroke-linecap:square;stroke-linejoin:miter;stroke-miterlimit:3.25;stroke-dasharray:none;stroke-opacity:1"
     d="m 608.48005,378.02695 c 0,-0.84416 -0.33839,-1.65491 -0.93473,-2.25107 -0.5961,-0.59616 -1.40703,-0.93476 -2.25102,-0.93476 -0.84423,0 -1.65504,0.33869 -2.25596,0.93476 -0.5961,0.59616 -0.93003,1.40691 -0.93003,2.25107 0,0.84892 0.33297,1.65969 0.93003,2.25584 0.60031,0.59615 1.41173,0.93 2.25596,0.93 0.84399,0 1.6548,-0.33388 2.25102,-0.93 0.5955,-0.59616 0.93473,-1.40692 0.93473,-2.25584 z m 0,0"
     id="path176" />
  <path
     style="fill:#fdfdfd;fill-opacity:1;fill-rule:evenodd;stroke:#000000;stroke-width:0.796555;stroke-linecap:square;stroke-linejoin:miter;stroke-miterlimit:3.25;stroke-dasharray:none;stroke-opacity:1"
     d="m 584.98782,290.18726 c 0,-0.84894 -0.33863,-1.65493 -0.93479,-2.25584 -0.5961,-0.59616 -1.4069,-0.93 -2.25107,-0.93 -0.8489,0 -1.65489,0.33387 -2.25581,0.93 -0.59615,0.60091 -0.93001,1.4069 -0.93001,2.25584 0,0.84415 0.33388,1.6549 0.93001,2.25106 0.60092,0.59615 1.40691,0.93476 2.25581,0.93476 0.84417,0 1.65493,-0.33863 2.25107,-0.93476 0.59615,-0.59616 0.93479,-1.40691 0.93479,-2.25106 z m 0,0"
     id="path178" />
  <path
     style="fill:#fdfdfd;fill-opacity:1;fill-rule:evenodd;stroke:#000000;stroke-width:0.796555;stroke-linecap:square;stroke-linejoin:miter;stroke-miterlimit:3.25;stroke-dasharray:none;stroke-opacity:1"
     d="m 614.74534,365.90454 c 0,-0.84413 -0.33779,-1.65489 -0.93491,-2.25582 -0.5955,-0.59616 -1.40679,-0.93 -2.25096,-0.93 -0.84905,0 -1.65499,0.33388 -2.25584,0.93 -0.59489,0.60092 -0.93003,1.41169 -0.93003,2.25582 0,0.84417 0.33357,1.65493 0.93003,2.25107 0.60091,0.59616 1.40679,0.93478 2.25584,0.93478 0.84417,0 1.65498,-0.33869 2.25096,-0.93478 0.5961,-0.59616 0.93491,-1.4069 0.93491,-2.25107 z m 0,0"
     id="path180" />
  <path
     style="fill:#fdfdfd;fill-opacity:1;fill-rule:evenodd;stroke:#000000;stroke-width:0.796555;stroke-linecap:square;stroke-linejoin:miter;stroke-miterlimit:3.25;stroke-dasharray:none;stroke-opacity:1"
     d="m 452.18559,589.81059 c 0,-0.84417 -0.33863,-1.65493 -0.93477,-2.25109 -0.59616,-0.59616 -1.40691,-0.93478 -2.25107,-0.93478 -0.84891,0 -1.65491,0.33863 -2.25584,0.93478 -0.5961,0.5961 -0.92998,1.40692 -0.92998,2.25109 0,0.84405 0.33387,1.65492 0.92998,2.25571 0.60091,0.5961 1.40693,0.9301 2.25584,0.9301 0.84416,0 1.65493,-0.33297 2.25107,-0.9301 0.5961,-0.60031 0.93477,-1.41166 0.93477,-2.25571 z m 0,0"
     id="path182" />
  <path
     style="fill:#fdfdfd;fill-opacity:1;fill-rule:evenodd;stroke:#000000;stroke-width:0.796555;stroke-linecap:square;stroke-linejoin:miter;stroke-miterlimit:3.25;stroke-dasharray:none;stroke-opacity:1"
     d="m 470.75451,552.43698 c 0,-0.84416 -0.33863,-1.65493 -0.93477,-2.25107 -0.59616,-0.59616 -1.40691,-0.93478 -2.25107,-0.93478 -0.84415,0 -1.65492,0.33863 -2.25583,0.93478 -0.59616,0.59615 -0.93,1.40691 -0.93,2.25107 0,0.84412 0.33388,1.6549 0.93,2.25106 0.60091,0.60091 1.41168,0.93476 2.25583,0.93476 0.84416,0 1.65491,-0.33388 2.25107,-0.93476 0.59615,-0.59616 0.93477,-1.40694 0.93477,-2.25106 z m 0,0"
     id="path184" />
  <path
     style="fill:#fdfdfd;fill-opacity:1;fill-rule:evenodd;stroke:#000000;stroke-width:0.796555;stroke-linecap:square;stroke-linejoin:miter;stroke-miterlimit:3.25;stroke-dasharray:none;stroke-opacity:1"
     d="m 622.79663,337.05382 c 0,-0.84416 -0.33357,-1.65491 -0.92997,-2.25106 -0.60031,-0.59616 -1.41179,-0.93478 -2.25584,-0.93478 -0.84417,0 -1.65498,0.33863 -2.2512,0.93478 -0.5955,0.5961 -0.93461,1.4069 -0.93461,2.25106 0,0.84415 0.33839,1.65491 0.93461,2.25584 0.59549,0.5961 1.40703,0.92997 2.2512,0.92997 0.84405,0 1.65492,-0.33388 2.25584,-0.92997 0.5961,-0.60091 0.92997,-1.41169 0.92997,-2.25584 z m 0,0"
     id="path186" />
  <path
     style="fill:#fdfdfd;fill-opacity:1;fill-rule:evenodd;stroke:#000000;stroke-width:0.796555;stroke-linecap:square;stroke-linejoin:miter;stroke-miterlimit:3.25;stroke-dasharray:none;stroke-opacity:1"
     d="m 495.36195,498.08117 c 0,-0.84416 -0.33387,-1.65491 -0.93478,-2.25585 -0.59615,-0.59616 -1.40691,-0.92998 -2.25106,-0.92998 -0.84415,0 -1.65492,0.33388 -2.25107,0.92998 -0.59616,0.60092 -0.93476,1.41169 -0.93476,2.25585 0,0.84415 0.33869,1.65491 0.93476,2.25107 0.59616,0.59615 1.40692,0.93476 2.25107,0.93476 0.84415,0 1.65491,-0.33863 2.25106,-0.93476 0.60092,-0.59616 0.93478,-1.40692 0.93478,-2.25107 z m 0,0"
     id="path188" />
  <path
     style="fill:#fdfdfd;fill-opacity:1;fill-rule:evenodd;stroke:#000000;stroke-width:0.796555;stroke-linecap:square;stroke-linejoin:miter;stroke-miterlimit:3.25;stroke-dasharray:none;stroke-opacity:1"
     d="m 572.93795,74.17849 c 0,-0.844147 -0.33387,-1.654906 -0.93,-2.255833 -0.60091,-0.596158 -1.40691,-0.930003 -2.25582,-0.930003 -0.84417,0 -1.65492,0.333875 -2.25108,0.930003 -0.59609,0.600915 -0.93476,1.411686 -0.93476,2.255833 0,0.844158 0.33864,1.654923 0.93476,2.251063 0.59616,0.596158 1.40691,0.934778 2.25108,0.934778 0.84891,0 1.65491,-0.338692 2.25582,-0.934778 0.59616,-0.596158 0.93,-1.406905 0.93,-2.251063 z m 0,0"
     id="path190" />
  <path
     style="fill:#fdfdfd;fill-opacity:1;fill-rule:evenodd;stroke:#000000;stroke-width:0.796555;stroke-linecap:square;stroke-linejoin:miter;stroke-miterlimit:3.25;stroke-dasharray:none;stroke-opacity:1"
     d="m 543.15333,425.02046 c 0,-0.84415 -0.33387,-1.65492 -0.93,-2.25107 -0.60092,-0.60092 -1.41168,-0.93477 -2.25583,-0.93477 -0.84414,0 -1.65492,0.33388 -2.25106,0.93477 -0.59616,0.59615 -0.93478,1.40692 -0.93478,2.25107 0,0.84415 0.3387,1.65492 0.93478,2.25106 0.5961,0.60091 1.40692,0.93478 2.25106,0.93478 0.84415,0 1.65492,-0.33387 2.25583,-0.93478 0.59615,-0.59616 0.93,-1.40691 0.93,-2.25106 z m 0,0"
     id="path192" />
  <path
     style="fill:#fdfdfd;fill-opacity:1;fill-rule:evenodd;stroke:#000000;stroke-width:0.796555;stroke-linecap:square;stroke-linejoin:miter;stroke-miterlimit:3.25;stroke-dasharray:none;stroke-opacity:1"
     d="m 616.34113,326.11013 c 0,-0.84414 -0.33357,-1.65492 -0.93015,-2.25583 -0.60031,-0.59616 -1.40691,-0.93 -2.25578,-0.93 -0.84417,0 -1.65492,0.33388 -2.25108,0.93 -0.5961,0.60091 -0.93473,1.41169 -0.93473,2.25583 0,0.84415 0.33779,1.65492 0.93473,2.25107 0.5955,0.59616 1.40691,0.93477 2.25108,0.93477 0.84887,0 1.65493,-0.33869 2.25578,-0.93477 0.5955,-0.59616 0.93015,-1.40692 0.93015,-2.25107 z m 0,0"
     id="path194" />
  <path
     style="fill:#fdfdfd;fill-opacity:1;fill-rule:evenodd;stroke:#000000;stroke-width:0.796555;stroke-linecap:square;stroke-linejoin:miter;stroke-miterlimit:3.25;stroke-dasharray:none;stroke-opacity:1"
     d="m 583.50992,29.351948 c 0,-0.844149 -0.33869,-1.654916 -0.93478,-2.251066 -0.59616,-0.596146 -1.40693,-0.934765 -2.25106,-0.934765 -0.84892,0 -1.65492,0.338608 -2.25584,0.934765 -0.59616,0.596146 -0.93,1.406917 -0.93,2.251066 0,0.848919 0.33387,1.659685 0.93,2.255836 0.60092,0.596146 1.40692,0.929994 2.25584,0.929994 0.84413,0 1.6549,-0.333839 2.25106,-0.929994 0.59616,-0.596146 0.93478,-1.406917 0.93478,-2.255836 z m 0,0"
     id="path196" />
  <path
     style="fill:#fdfdfd;fill-opacity:1;fill-rule:evenodd;stroke:#000000;stroke-width:0.796555;stroke-linecap:square;stroke-linejoin:miter;stroke-miterlimit:3.25;stroke-dasharray:none;stroke-opacity:1"
     d="m 507.25767,466.55572 c 0,-0.84415 -0.33388,-1.6549 -0.93479,-2.25107 -0.59616,-0.60091 -1.40691,-0.93477 -2.25106,-0.93477 -0.84413,0 -1.65491,0.33388 -2.25107,0.93477 -0.60091,0.59616 -0.93475,1.40692 -0.93475,2.25107 0,0.84415 0.33387,1.65491 0.93475,2.25106 0.59616,0.60092 1.40694,0.93477 2.25107,0.93477 0.84415,0 1.65492,-0.33388 2.25106,-0.93477 0.60092,-0.59615 0.93479,-1.40691 0.93479,-2.25106 z m 0,0"
     id="path198" />
  <path
     style="fill:#fdfdfd;fill-opacity:1;fill-rule:evenodd;stroke:#000000;stroke-width:0.796555;stroke-linecap:square;stroke-linejoin:miter;stroke-miterlimit:3.25;stroke-dasharray:none;stroke-opacity:1"
     d="m 526.92366,442.80056 c 0,-0.84416 -0.33388,-1.65492 -0.93,-2.25106 -0.60091,-0.60091 -1.40692,-0.93478 -2.25583,-0.93478 -0.84415,0 -1.65492,0.33388 -2.25106,0.93478 -0.59616,0.59616 -0.93478,1.4069 -0.93478,2.25106 0,0.84414 0.33863,1.65491 0.93478,2.25107 0.59615,0.60091 1.40691,0.93477 2.25106,0.93477 0.84891,0 1.65491,-0.33387 2.25583,-0.93477 0.59616,-0.59616 0.93,-1.40693 0.93,-2.25107 z m 0,0"
     id="path200" />
  <path
     style="fill:#fdfdfd;fill-opacity:1;fill-rule:evenodd;stroke:#000000;stroke-width:0.796555;stroke-linecap:square;stroke-linejoin:miter;stroke-miterlimit:3.25;stroke-dasharray:none;stroke-opacity:1"
     d="m 622.89646,352.11387 c 0,-0.84891 -0.33297,-1.65492 -0.93491,-2.25585 -0.59549,-0.59609 -1.40691,-0.92998 -2.25102,-0.92998 -0.84417,0 -1.65486,0.33387 -2.25108,0.92998 -0.60092,0.60092 -0.93473,1.40694 -0.93473,2.25585 0,0.84415 0.33357,1.65492 0.93473,2.25107 0.5961,0.5961 1.40691,0.93476 2.25108,0.93476 0.84411,0 1.65499,-0.33863 2.25102,-0.93476 0.60092,-0.59616 0.93491,-1.40692 0.93491,-2.25107 z m 0,0"
     id="path202" />
  <path
     style="fill:#fdfdfd;fill-opacity:1;fill-rule:evenodd;stroke:#000000;stroke-width:0.796555;stroke-linecap:square;stroke-linejoin:miter;stroke-miterlimit:3.25;stroke-dasharray:none;stroke-opacity:1"
     d="m 481.70727,522.95156 c 0,-0.84892 -0.33388,-1.65492 -0.93001,-2.25584 -0.60092,-0.59616 -1.41167,-0.92998 -2.25583,-0.92998 -0.84415,0 -1.65492,0.33381 -2.25107,0.92998 -0.59616,0.60091 -0.93476,1.40692 -0.93476,2.25584 0,0.84415 0.33863,1.65491 0.93476,2.25105 0.59615,0.59616 1.40692,0.93479 2.25107,0.93479 0.84416,0 1.65493,-0.33863 2.25583,-0.93479 0.59616,-0.59609 0.93001,-1.4069 0.93001,-2.25105 z m 0,0"
     id="path204" />
  <path
     style="fill:#fdfdfd;fill-opacity:1;fill-rule:evenodd;stroke:#000000;stroke-width:0.796555;stroke-linecap:square;stroke-linejoin:miter;stroke-miterlimit:3.25;stroke-dasharray:none;stroke-opacity:1"
     d="m 565.01352,247.59115 c 0,-0.84415 -0.33388,-1.6549 -0.93,-2.25105 -0.5961,-0.5961 -1.40691,-0.93479 -2.25582,-0.93479 -0.84416,0 -1.65493,0.33864 -2.25107,0.93479 -0.59616,0.59616 -0.93478,1.4069 -0.93478,2.25105 0,0.84416 0.33863,1.65493 0.93478,2.25107 0.59609,0.60091 1.40691,0.93477 2.25107,0.93477 0.84891,0 1.65967,-0.33388 2.25582,-0.93477 0.59615,-0.59616 0.93,-1.40691 0.93,-2.25107 z m 0,0"
     id="path206" />
  <path
     style="fill:#fdfdfd;fill-opacity:1;fill-rule:evenodd;stroke:#000000;stroke-width:0.796555;stroke-linecap:square;stroke-linejoin:miter;stroke-miterlimit:3.25;stroke-dasharray:none;stroke-opacity:1"
     d="m 603.33001,391.9355 c 0,-0.84416 -0.33839,-1.65492 -0.93467,-2.25107 -0.5961,-0.59616 -1.40691,-0.93477 -2.25108,-0.93477 -0.84899,0 -1.65499,0.33863 -2.25584,0.93477 -0.5961,0.59615 -0.92998,1.40691 -0.92998,2.25107 0,0.84891 0.33298,1.65968 0.92998,2.25582 0.60031,0.59616 1.40685,0.92999 2.25584,0.92999 0.84417,0 1.65492,-0.33388 2.25108,-0.92999 0.5961,-0.59615 0.93467,-1.40691 0.93467,-2.25582 z m 0,0"
     id="path208" />
  <path
     style="fill:#fdfdfd;fill-opacity:1;fill-rule:evenodd;stroke:#000000;stroke-width:0.796555;stroke-linecap:square;stroke-linejoin:miter;stroke-miterlimit:3.25;stroke-dasharray:none;stroke-opacity:1"
     d="m 564.45136,176.07182 c 0,-0.84416 -0.33387,-1.65492 -0.92998,-2.25584 -0.60092,-0.59616 -1.40691,-0.93001 -2.25584,-0.93001 -0.84416,0 -1.65492,0.33388 -2.25107,0.93001 -0.5961,0.60092 -0.93478,1.41168 -0.93478,2.25584 0,0.84414 0.33863,1.65491 0.93478,2.25105 0.59616,0.59616 1.40691,0.93477 2.25107,0.93477 0.84893,0 1.65491,-0.33863 2.25584,-0.93477 0.59616,-0.59616 0.92998,-1.40691 0.92998,-2.25105 z m 0,0"
     id="path210" />
  <path
     style="fill:#fdfdfd;fill-opacity:1;fill-rule:evenodd;stroke:#000000;stroke-width:0.796555;stroke-linecap:square;stroke-linejoin:miter;stroke-miterlimit:3.25;stroke-dasharray:none;stroke-opacity:1"
     d="m 367.73689,199.11069 c 0,-0.84414 -0.33863,-1.65492 -0.93477,-2.25106 -0.59616,-0.59616 -1.40693,-0.93478 -2.25106,-0.93478 -0.84416,0 -1.65493,0.33863 -2.25585,0.93478 -0.59609,0.5961 -0.93,1.40692 -0.93,2.25106 0,0.84415 0.33388,1.65492 0.93,2.25583 0.60092,0.59616 1.41169,0.93001 2.25585,0.93001 0.84413,0 1.6549,-0.33388 2.25106,-0.93001 0.59616,-0.60092 0.93477,-1.41168 0.93477,-2.25583 z m 0,0"
     id="path212" />
  <path
     style="fill:#fdfdfd;fill-opacity:1;fill-rule:evenodd;stroke:#000000;stroke-width:0.796555;stroke-linecap:square;stroke-linejoin:miter;stroke-miterlimit:3.25;stroke-dasharray:none;stroke-opacity:1"
     d="m 625.44421,469.6475 c 0,-0.84415 -0.33297,-1.65491 -0.93467,-2.25583 -0.5961,-0.5961 -1.40715,-0.93001 -2.25126,-0.93001 -0.84405,0 -1.65487,0.33388 -2.25108,0.93001 -0.5961,0.60091 -0.93461,1.41168 -0.93461,2.25583 0,0.84416 0.33839,1.65494 0.93461,2.25107 0.59549,0.5961 1.40703,0.93476 2.25108,0.93476 0.84411,0 1.65504,-0.33863 2.25126,-0.93476 0.60152,-0.59615 0.93467,-1.40691 0.93467,-2.25107 z m 0,0"
     id="path214" />
  <path
     style="fill:#fdfdfd;fill-opacity:1;fill-rule:evenodd;stroke:#000000;stroke-width:0.796555;stroke-linecap:square;stroke-linejoin:miter;stroke-miterlimit:3.25;stroke-dasharray:none;stroke-opacity:1"
     d="m 605.90497,658.94546 c 0,-0.84417 -0.33297,-1.65487 -0.93467,-2.25114 -0.5961,-0.5967 -1.40691,-0.93467 -2.25108,-0.93467 -0.84417,0 -1.65499,0.33839 -2.25102,0.93467 -0.60032,0.5967 -0.93485,1.40697 -0.93485,2.25114 0,0.84887 0.33297,1.65968 0.93485,2.2559 0.59609,0.59549 1.40685,0.92997 2.25102,0.92997 0.84417,0 1.65492,-0.33357 2.25108,-0.92997 0.60091,-0.5955 0.93467,-1.40703 0.93467,-2.2559 z m 0,0"
     id="path216" />
  <path
     style="fill:#fdfdfd;fill-opacity:1;fill-rule:evenodd;stroke:#000000;stroke-width:0.796555;stroke-linecap:square;stroke-linejoin:miter;stroke-miterlimit:3.25;stroke-dasharray:none;stroke-opacity:1"
     d="m 792.83646,971.27146 c 0,-0.84423 -0.33297,-1.65498 -0.93473,-2.25114 -0.5961,-0.5961 -1.40691,-0.93485 -2.25108,-0.93485 -0.84417,0 -1.65487,0.33839 -2.25109,0.93485 -0.60151,0.59489 -0.93479,1.40691 -0.93479,2.25114 0,0.84411 0.33358,1.65487 0.93479,2.25102 0.5961,0.60152 1.40692,0.93479 2.25109,0.93479 0.84417,0 1.65486,-0.33297 2.25108,-0.93479 0.60091,-0.59609 0.93473,-1.40691 0.93473,-2.25102 z m 0,0"
     id="path218" />
  <path
     style="fill:#fdfdfd;fill-opacity:1;fill-rule:evenodd;stroke:#000000;stroke-width:0.796555;stroke-linecap:square;stroke-linejoin:miter;stroke-miterlimit:3.25;stroke-dasharray:none;stroke-opacity:1"
     d="m 624.86395,418.56484 c 0,-0.84414 -0.33839,-1.65491 -0.93479,-2.25106 -0.5961,-0.60091 -1.40697,-0.93477 -2.25108,-0.93477 -0.84405,0 -1.65493,0.33388 -2.25109,0.93477 -0.60031,0.59616 -0.93473,1.40692 -0.93473,2.25106 0,0.84416 0.33358,1.65492 0.93473,2.25107 0.5967,0.60092 1.40704,0.93477 2.25109,0.93477 0.84411,0 1.65492,-0.33388 2.25108,-0.93477 0.5967,-0.59615 0.93479,-1.40691 0.93479,-2.25107 z m 0,0"
     id="path220" />
  <path
     style="fill:#fdfdfd;fill-opacity:1;fill-rule:evenodd;stroke:#000000;stroke-width:0.796555;stroke-linecap:square;stroke-linejoin:miter;stroke-miterlimit:3.25;stroke-dasharray:none;stroke-opacity:1"
     d="m 608.81561,705.88454 c 0,-0.84411 -0.33839,-1.65486 -0.93479,-2.25096 -0.59549,-0.60091 -1.40691,-0.93491 -2.2512,-0.93491 -0.84411,0 -1.65486,0.33297 -2.25578,0.93491 -0.5961,0.5961 -0.92997,1.40685 -0.92997,2.25096 0,0.84423 0.33357,1.65499 0.92997,2.25114 0.60092,0.60032 1.41167,0.93473 2.25578,0.93473 0.84429,0 1.65498,-0.33357 2.2512,-0.93473 0.5967,-0.59609 0.93479,-1.40691 0.93479,-2.25114 z m 0,0"
     id="path222" />
  <path
     style="fill:#fdfdfd;fill-opacity:1;fill-rule:evenodd;stroke:#000000;stroke-width:0.796555;stroke-linecap:square;stroke-linejoin:miter;stroke-miterlimit:3.25;stroke-dasharray:none;stroke-opacity:1"
     d="m 533.90515,725.78632 c 0,-0.84411 -0.33387,-1.65505 -0.93,-2.25108 -0.60091,-0.60032 -1.41168,-0.93473 -2.25584,-0.93473 -0.84413,0 -1.65491,0.33297 -2.25107,0.93473 -0.59609,0.59609 -0.93476,1.40697 -0.93476,2.25108 0,0.84417 0.3387,1.65492 0.93476,2.25114 0.59616,0.60031 1.40694,0.93479 2.25107,0.93479 0.84416,0 1.65492,-0.33357 2.25584,-0.93479 0.5961,-0.5967 0.93,-1.40697 0.93,-2.25114 z m 0,0"
     id="path224" />
  <path
     style="fill:#fdfdfd;fill-opacity:1;fill-rule:evenodd;stroke:#000000;stroke-width:0.796555;stroke-linecap:square;stroke-linejoin:miter;stroke-miterlimit:3.25;stroke-dasharray:none;stroke-opacity:1"
     d="m 615.33463,676.73464 c 0,-0.84899 -0.33839,-1.65974 -0.93479,-2.25578 -0.5961,-0.59549 -1.40691,-0.93003 -2.25096,-0.93003 -0.84899,0 -1.65504,0.33357 -2.2559,0.93003 -0.59549,0.5955 -0.93003,1.40679 -0.93003,2.25578 0,0.84417 0.33297,1.65492 0.93003,2.25108 0.60092,0.5955 1.40691,0.93479 2.2559,0.93479 0.84405,0 1.65474,-0.33779 2.25096,-0.93479 0.5961,-0.5967 0.93479,-1.40691 0.93479,-2.25108 z m 0,0"
     id="path226" />
  <path
     style="fill:#fdfdfd;fill-opacity:1;fill-rule:evenodd;stroke:#000000;stroke-width:0.796555;stroke-linecap:square;stroke-linejoin:miter;stroke-miterlimit:3.25;stroke-dasharray:none;stroke-opacity:1"
     d="m 483.57503,324.89517 c 0,-0.84414 -0.33387,-1.65491 -0.93476,-2.25107 -0.59616,-0.60091 -1.40694,-0.93477 -2.25107,-0.93477 -0.84415,0 -1.65492,0.33388 -2.25106,0.93477 -0.60091,0.59616 -0.93479,1.40693 -0.93479,2.25107 0,0.84414 0.33388,1.65492 0.93479,2.25108 0.5961,0.60091 1.40691,0.93475 2.25106,0.93475 0.84413,0 1.65492,-0.33387 2.25107,-0.93475 0.60091,-0.59616 0.93476,-1.40694 0.93476,-2.25108 z m 0,0"
     id="path228" />
  <path
     style="fill:#fdfdfd;fill-opacity:1;fill-rule:evenodd;stroke:#000000;stroke-width:0.796555;stroke-linecap:square;stroke-linejoin:miter;stroke-miterlimit:3.25;stroke-dasharray:none;stroke-opacity:1"
     d="m 575.07774,715.83094 c 0,-0.84417 -0.33387,-1.65504 -0.92999,-2.25108 -0.60091,-0.5961 -1.41169,-0.93473 -2.25585,-0.93473 -0.84414,0 -1.6549,0.33839 -2.25106,0.93473 -0.5961,0.5955 -0.93477,1.40691 -0.93477,2.25108 0,0.84893 0.33864,1.65493 0.93477,2.25584 0.59616,0.5961 1.40692,0.92997 2.25106,0.92997 0.84416,0 1.65493,-0.33297 2.25585,-0.92997 0.5961,-0.60031 0.92999,-1.40691 0.92999,-2.25584 z m 0,0"
     id="path230" />
  <path
     style="fill:#fdfdfd;fill-opacity:1;fill-rule:evenodd;stroke:#000000;stroke-width:0.796555;stroke-linecap:square;stroke-linejoin:miter;stroke-miterlimit:3.25;stroke-dasharray:none;stroke-opacity:1"
     d="m 582.73924,342.40327 c 0,-0.84414 -0.33869,-1.65491 -0.93479,-2.25107 -0.59615,-0.59609 -1.40691,-0.93476 -2.25107,-0.93476 -0.84412,0 -1.65489,0.33863 -2.25582,0.93476 -0.59615,0.59616 -0.93,1.40693 -0.93,2.25107 0,0.84414 0.33388,1.65491 0.93,2.25106 0.60092,0.60092 1.4117,0.93479 2.25582,0.93479 0.84416,0 1.65493,-0.33388 2.25107,-0.93479 0.59616,-0.5961 0.93479,-1.40692 0.93479,-2.25106 z m 0,0"
     id="path232" />
  <path
     style="fill:#fdfdfd;fill-opacity:1;fill-rule:evenodd;stroke:#000000;stroke-width:0.796555;stroke-linecap:square;stroke-linejoin:miter;stroke-miterlimit:3.25;stroke-dasharray:none;stroke-opacity:1"
     d="m 427.82294,196.52664 c 0,-0.84416 -0.33388,-1.65492 -0.93001,-2.25107 -0.60091,-0.60091 -1.40691,-0.93477 -2.25582,-0.93477 -0.84416,0 -1.65493,0.33388 -2.25107,0.93477 -0.59616,0.59616 -0.93477,1.40691 -0.93477,2.25107 0,0.84415 0.33863,1.65492 0.93477,2.25106 0.59615,0.59616 1.40691,0.93477 2.25107,0.93477 0.84891,0 1.65491,-0.33869 2.25582,-0.93477 0.59616,-0.59616 0.93001,-1.40691 0.93001,-2.25106 z m 0,0"
     id="path234" />
  <path
     style="fill:#fdfdfd;fill-opacity:1;fill-rule:evenodd;stroke:#000000;stroke-width:0.796555;stroke-linecap:square;stroke-linejoin:miter;stroke-miterlimit:3.25;stroke-dasharray:none;stroke-opacity:1"
     d="m 614.74534,365.90454 c 0,-0.84413 -0.33779,-1.65489 -0.93491,-2.25582 -0.5955,-0.59616 -1.40679,-0.93 -2.25096,-0.93 -0.84905,0 -1.65499,0.33388 -2.25584,0.93 -0.59489,0.60092 -0.93003,1.41169 -0.93003,2.25582 0,0.84417 0.33357,1.65493 0.93003,2.25107 0.60091,0.59616 1.40679,0.93478 2.25584,0.93478 0.84417,0 1.65498,-0.33869 2.25096,-0.93478 0.5961,-0.59616 0.93491,-1.4069 0.93491,-2.25107 z m 0,0"
     id="path236" />
  <path
     style="fill:#fdfdfd;fill-opacity:1;fill-rule:evenodd;stroke:#000000;stroke-width:0.796555;stroke-linecap:square;stroke-linejoin:miter;stroke-miterlimit:3.25;stroke-dasharray:none;stroke-opacity:1"
     d="m 610.46572,592.96569 c 0,-0.84399 -0.33358,-1.65468 -0.93473,-2.25572 -0.5961,-0.59549 -1.40703,-0.92997 -2.25114,-0.92997 -0.84411,0 -1.65487,0.33357 -2.25109,0.92997 -0.60091,0.60092 -0.93466,1.41173 -0.93466,2.25572 0,0.84423 0.33357,1.65504 0.93466,2.25126 0.5955,0.5961 1.40698,0.93479 2.25109,0.93479 0.84411,0 1.65486,-0.33839 2.25114,-0.93479 0.60091,-0.5961 0.93473,-1.40703 0.93473,-2.25126 z m 0,0"
     id="path238" />
  <path
     style="fill:#fdfdfd;fill-opacity:1;fill-rule:evenodd;stroke:#000000;stroke-width:0.796555;stroke-linecap:square;stroke-linejoin:miter;stroke-miterlimit:3.25;stroke-dasharray:none;stroke-opacity:1"
     d="m 437.90527,289.68857 c 0,-0.84415 -0.33387,-1.65493 -0.93476,-2.25107 -0.59615,-0.60091 -1.40693,-0.93478 -2.25105,-0.93478 -0.84416,0 -1.65493,0.33387 -2.25107,0.93478 -0.60092,0.5961 -0.93478,1.40692 -0.93478,2.25107 0,0.84414 0.33387,1.65493 0.93478,2.25106 0.59615,0.59616 1.40691,0.93476 2.25107,0.93476 0.84412,0 1.65491,-0.33863 2.25105,-0.93476 0.60092,-0.5961 0.93476,-1.40692 0.93476,-2.25106 z m 0,0"
     id="path240" />
  <path
     style="fill:#fdfdfd;fill-opacity:1;fill-rule:evenodd;stroke:#000000;stroke-width:0.796555;stroke-linecap:square;stroke-linejoin:miter;stroke-miterlimit:3.25;stroke-dasharray:none;stroke-opacity:1"
     d="m 639.42529,508.46271 c 0,-0.84414 -0.33297,-1.6549 -0.92991,-2.25106 -0.60032,-0.60091 -1.41173,-0.93477 -2.2559,-0.93477 -0.84417,0 -1.65493,0.33387 -2.25114,0.93477 -0.5961,0.5961 -0.93479,1.40692 -0.93479,2.25106 0,0.84416 0.33839,1.65492 0.93479,2.25107 0.59609,0.60092 1.40697,0.93477 2.25114,0.93477 0.84417,0 1.65486,-0.33388 2.2559,-0.93477 0.59609,-0.59615 0.92991,-1.40691 0.92991,-2.25107 z m 0,0"
     id="path242" />
  <path
     style="fill:#fdfdfd;fill-opacity:1;fill-rule:evenodd;stroke:#000000;stroke-width:0.796555;stroke-linecap:square;stroke-linejoin:miter;stroke-miterlimit:3.25;stroke-dasharray:none;stroke-opacity:1"
     d="m 536.97882,337.28956 c 0,-0.84416 -0.33869,-1.65492 -0.93478,-2.25106 -0.59615,-0.59616 -1.4069,-0.93477 -2.25107,-0.93477 -0.84891,0 -1.6549,0.33863 -2.25583,0.93477 -0.59616,0.59616 -0.92998,1.4069 -0.92998,2.25106 0,0.84414 0.33387,1.65491 0.92998,2.25106 0.60091,0.60092 1.40692,0.93477 2.25583,0.93477 0.84417,0 1.65493,-0.33388 2.25107,-0.93477 0.59616,-0.59616 0.93478,-1.40692 0.93478,-2.25106 z m 0,0"
     id="path244" />
  <path
     style="fill:#fdfdfd;fill-opacity:1;fill-rule:evenodd;stroke:#000000;stroke-width:0.796555;stroke-linecap:square;stroke-linejoin:miter;stroke-miterlimit:3.25;stroke-dasharray:none;stroke-opacity:1"
     d="m 517.82962,725.95846 c 0,-0.84411 -0.33387,-1.65474 -0.92999,-2.25578 -0.59616,-0.59609 -1.40693,-0.92997 -2.25585,-0.92997 -0.84416,0 -1.65492,0.33297 -2.25105,0.92997 -0.59616,0.60092 -0.93477,1.41167 -0.93477,2.25578 0,0.84423 0.33863,1.65505 0.93477,2.25127 0.59616,0.59549 1.40689,0.93473 2.25105,0.93473 0.84892,0 1.65969,-0.3384 2.25585,-0.93473 0.59616,-0.5961 0.92999,-1.40704 0.92999,-2.25127 z m 0,0"
     id="path246" />
  <path
     style="fill:#fdfdfd;fill-opacity:1;fill-rule:evenodd;stroke:#000000;stroke-width:0.796555;stroke-linecap:square;stroke-linejoin:miter;stroke-miterlimit:3.25;stroke-dasharray:none;stroke-opacity:1"
     d="m 594.36289,714.43463 c 0,-0.84417 -0.33779,-1.65492 -0.93473,-2.25114 -0.59549,-0.60092 -1.40697,-0.93473 -2.25114,-0.93473 -0.84411,0 -1.65486,0.33297 -2.25578,0.93473 -0.5955,0.59549 -0.93003,1.40697 -0.93003,2.25114 0,0.84417 0.33382,1.65486 0.93003,2.25108 0.60085,0.60092 1.41167,0.93473 2.25578,0.93473 0.84417,0 1.65504,-0.33297 2.25114,-0.93473 0.5955,-0.5961 0.93473,-1.40691 0.93473,-2.25108 z m 0,0"
     id="path248" />
  <path
     style="fill:#fdfdfd;fill-opacity:1;fill-rule:evenodd;stroke:#000000;stroke-width:0.796555;stroke-linecap:square;stroke-linejoin:miter;stroke-miterlimit:3.25;stroke-dasharray:none;stroke-opacity:1"
     d="m 705.80372,691.31411 c 0,-0.84417 -0.33839,-1.65499 -0.93473,-2.25102 -0.5967,-0.60092 -1.40697,-0.93479 -2.25108,-0.93479 -0.84417,0 -1.65492,0.33297 -2.25584,0.93479 -0.59549,0.59609 -0.92997,1.40685 -0.92997,2.25102 0,0.84423 0.33297,1.65492 0.92997,2.25114 0.60152,0.60091 1.41167,0.93479 2.25584,0.93479 0.84411,0 1.6548,-0.33358 2.25108,-0.93479 0.5955,-0.5961 0.93473,-1.40691 0.93473,-2.25114 z m 0,0"
     id="path250" />
  <path
     style="fill:#fdfdfd;fill-opacity:1;fill-rule:evenodd;stroke:#000000;stroke-width:0.796555;stroke-linecap:square;stroke-linejoin:miter;stroke-miterlimit:3.25;stroke-dasharray:none;stroke-opacity:1"
     d="m 609.2961,362.74929 c 0,-0.84415 -0.33357,-1.65491 -0.93003,-2.25107 -0.60031,-0.60092 -1.41167,-0.93477 -2.2559,-0.93477 -0.84423,0 -1.65492,0.33387 -2.25108,0.93477 -0.5955,0.5961 -0.93473,1.40692 -0.93473,2.25107 0,0.84416 0.33779,1.65492 0.93473,2.25106 0.5961,0.60092 1.40685,0.93477 2.25108,0.93477 0.84423,0 1.65498,-0.33387 2.2559,-0.93477 0.5961,-0.59616 0.93003,-1.4069 0.93003,-2.25106 z m 0,0"
     id="path252" />
  <path
     style="fill:#fdfdfd;fill-opacity:1;fill-rule:evenodd;stroke:#000000;stroke-width:0.796555;stroke-linecap:square;stroke-linejoin:miter;stroke-miterlimit:3.25;stroke-dasharray:none;stroke-opacity:1"
     d="m 437.2706,231.09856 c 0,-0.84415 -0.33388,-1.65492 -0.92999,-2.25107 -0.60091,-0.60092 -1.40692,-0.93477 -2.25584,-0.93477 -0.84417,0 -1.65492,0.33387 -2.25107,0.93477 -0.5961,0.5961 -0.93477,1.40692 -0.93477,2.25107 0,0.84415 0.33863,1.65491 0.93477,2.25106 0.59616,0.60091 1.4069,0.93476 2.25107,0.93476 0.84892,0 1.65491,-0.33387 2.25584,-0.93476 0.5961,-0.59616 0.92999,-1.40691 0.92999,-2.25106 z m 0,0"
     id="path254" />
  <path
     style="fill:#fdfdfd;fill-opacity:1;fill-rule:evenodd;stroke:#000000;stroke-width:0.796555;stroke-linecap:square;stroke-linejoin:miter;stroke-miterlimit:3.25;stroke-dasharray:none;stroke-opacity:1"
     d="m 776.96954,865.95087 c 0,-0.84417 -0.33357,-1.65492 -0.93015,-2.2559 -0.60092,-0.5961 -1.41155,-0.93003 -2.25578,-0.93003 -0.84411,0 -1.65493,0.33357 -2.25102,0.93003 -0.5961,0.60091 -0.93473,1.41173 -0.93473,2.2559 0,0.84411 0.33839,1.65486 0.93473,2.25102 0.59549,0.5961 1.40691,0.93479 2.25102,0.93479 0.84423,0 1.65492,-0.33839 2.25578,-0.93479 0.59549,-0.5961 0.93015,-1.40691 0.93015,-2.25102 z m 0,0"
     id="path256" />
  <path
     style="fill:#fdfdfd;fill-opacity:1;fill-rule:evenodd;stroke:#000000;stroke-width:0.796555;stroke-linecap:square;stroke-linejoin:miter;stroke-miterlimit:3.25;stroke-dasharray:none;stroke-opacity:1"
     d="m 780.9136,789.07299 c 0,-0.84423 -0.33839,-1.65505 -0.93491,-2.2559 -0.5961,-0.5955 -1.40685,-0.93003 -2.25096,-0.93003 -0.84411,0 -1.65499,0.33357 -2.25584,0.93003 -0.5967,0.60031 -0.92997,1.41167 -0.92997,2.2559 0,0.84417 0.33357,1.65492 0.92997,2.25102 0.60152,0.5955 1.41173,0.93479 2.25584,0.93479 0.84411,0 1.65492,-0.33839 2.25096,-0.93479 0.5967,-0.5961 0.93491,-1.40685 0.93491,-2.25102 z m 0,0"
     id="path258" />
  <path
     style="fill:#fdfdfd;fill-opacity:1;fill-rule:evenodd;stroke:#000000;stroke-width:0.796555;stroke-linecap:square;stroke-linejoin:miter;stroke-miterlimit:3.25;stroke-dasharray:none;stroke-opacity:1"
     d="m 635.55379,548.96436 c 0,-0.84892 -0.3384,-1.65492 -0.93479,-2.25584 -0.5955,-0.59615 -1.40692,-0.93 -2.25109,-0.93 -0.84423,0 -1.65504,0.33388 -2.25096,0.93 -0.60091,0.60092 -0.93491,1.40692 -0.93491,2.25584 0,0.84415 0.33297,1.65491 0.93491,2.25106 0.5949,0.5961 1.40673,0.93477 2.25096,0.93477 0.84417,0 1.65499,-0.33863 2.25109,-0.93477 0.59609,-0.59616 0.93479,-1.40691 0.93479,-2.25106 z m 0,0"
     id="path260" />
  <path
     style="fill:#fdfdfd;fill-opacity:1;fill-rule:evenodd;stroke:#000000;stroke-width:0.796555;stroke-linecap:square;stroke-linejoin:miter;stroke-miterlimit:3.25;stroke-dasharray:none;stroke-opacity:1"
     d="m 598.64245,621.19104 c 0,-0.84417 -0.33839,-1.65487 -0.93467,-2.25102 -0.5961,-0.60032 -1.40691,-0.93479 -2.25114,-0.93479 -0.84411,0 -1.65486,0.33297 -2.25584,0.93479 -0.5961,0.59549 -0.92997,1.40685 -0.92997,2.25102 0,0.84411 0.33297,1.65504 0.92997,2.25102 0.60092,0.60091 1.41173,0.93491 2.25584,0.93491 0.84423,0 1.65486,-0.33357 2.25114,-0.93491 0.5961,-0.5961 0.93467,-1.40691 0.93467,-2.25102 z m 0,0"
     id="path262" />
  <path
     style="fill:#fdfdfd;fill-opacity:1;fill-rule:evenodd;stroke:#000000;stroke-width:0.796555;stroke-linecap:square;stroke-linejoin:miter;stroke-miterlimit:3.25;stroke-dasharray:none;stroke-opacity:1"
     d="m 630.91151,377.5464 c 0,-0.84416 -0.33358,-1.65491 -0.93003,-2.25584 -0.60032,-0.59616 -1.41161,-0.93001 -2.25578,-0.93001 -0.84411,0 -1.65493,0.33388 -2.25108,0.93001 -0.5961,0.60091 -0.93479,1.41168 -0.93479,2.25584 0,0.84415 0.33778,1.65491 0.93479,2.25107 0.59609,0.59615 1.40697,0.93476 2.25108,0.93476 0.84417,0 1.65486,-0.33863 2.25578,-0.93476 0.59609,-0.59616 0.93003,-1.40692 0.93003,-2.25107 z m 0,0"
     id="path264" />
  <path
     style="fill:#fdfdfd;fill-opacity:1;fill-rule:evenodd;stroke:#000000;stroke-width:0.796555;stroke-linecap:square;stroke-linejoin:miter;stroke-miterlimit:3.25;stroke-dasharray:none;stroke-opacity:1"
     d="m 551.16844,722.62188 c 0,-0.84417 -0.33388,-1.65486 -0.93,-2.25096 -0.60091,-0.5967 -1.40691,-0.93479 -2.25584,-0.93479 -0.84414,0 -1.65491,0.33839 -2.25107,0.93479 -0.59615,0.5955 -0.93475,1.40679 -0.93475,2.25096 0,0.84417 0.33869,1.65499 0.93475,2.2559 0.59616,0.5955 1.40693,0.93003 2.25107,0.93003 0.84893,0 1.65492,-0.33297 2.25584,-0.93003 0.59616,-0.60031 0.93,-1.41173 0.93,-2.2559 z m 0,0"
     id="path266" />
  <path
     style="fill:#fdfdfd;fill-opacity:1;fill-rule:evenodd;stroke:#000000;stroke-width:0.796555;stroke-linecap:square;stroke-linejoin:miter;stroke-miterlimit:3.25;stroke-dasharray:none;stroke-opacity:1"
     d="m 735.77865,729.24079 c 0,-0.84417 -0.33298,-1.65504 -0.92986,-2.25583 -0.60091,-0.5961 -1.40685,-0.93004 -2.25584,-0.93004 -0.84423,0 -1.65498,0.33358 -2.25102,0.93004 -0.59609,0.60091 -0.93491,1.41166 -0.93491,2.25583 0,0.84417 0.33839,1.65487 0.93491,2.25097 0.5961,0.59609 1.40679,0.93491 2.25102,0.93491 0.84899,0 1.65493,-0.33779 2.25584,-0.93491 0.5961,-0.5961 0.92986,-1.4068 0.92986,-2.25097 z m 0,0"
     id="path268" />
</svg>
